<?xml version="1.0" encoding="UTF-8" standalone="no"?>
<!-- Created with Inkscape (http://www.inkscape.org/) -->

<svg
   xmlns:dc="http://purl.org/dc/elements/1.1/"
   xmlns:cc="http://creativecommons.org/ns#"
   xmlns:rdf="http://www.w3.org/1999/02/22-rdf-syntax-ns#"
   xmlns:svg="http://www.w3.org/2000/svg"
   xmlns="http://www.w3.org/2000/svg"
   xmlns:sodipodi="http://sodipodi.sourceforge.net/DTD/sodipodi-0.dtd"
   xmlns:inkscape="http://www.inkscape.org/namespaces/inkscape"
   id="svg3068"
   viewBox="0 0 1000 250"
   version="1.1"
   inkscape:version="0.92.3 (2405546, 2018-03-11)"
   sodipodi:docname="logo.svg"
   width="1000"
   height="250">
  <defs
     id="defs9" />
  <sodipodi:namedview
     pagecolor="#ffffff"
     bordercolor="#666666"
     borderopacity="1"
     objecttolerance="10"
     gridtolerance="10"
     guidetolerance="10"
     inkscape:pageopacity="0"
     inkscape:pageshadow="2"
     inkscape:window-width="1920"
     inkscape:window-height="1025"
     id="namedview7"
     showgrid="false"
     inkscape:zoom="1.3350176"
     inkscape:cx="362.6657"
     inkscape:cy="193.68838"
     inkscape:window-x="1920"
     inkscape:window-y="27"
     inkscape:window-maximized="1"
     inkscape:current-layer="svg3068"
     inkscape:measure-start="224.716,368.534"
     inkscape:measure-end="17.2282,370.782" />
  <g
     id="layer1"
     transform="matrix(0.5,0,0,0.5,-73.43,-59.895)">
    <path
       id="path3014"
       style="fill:#ffffff"
       d="m 146.86,619.79 v -500 h 500 v 500 h -500 m 7.5,-7.5 h 485 v -485 h -485 v 485 m 7.5,-7.5 V 135.41 H 631.24 V 604.79 H 161.86 m 80,-464.38 -11.875,1.875 -25.625,10 c -3.3334,1.25 -8.3334,1.8755 -15,1.875 -9.5834,4.7e-4 -14.375,-2.7078 -14.375,-8.125 -1.6e-4,-1.25 1.0422,-2.2912 3.125,-3.125 3.3333,-1.6662 5.8333,-2.4995 7.5,-2.5 1.6666,4.7e-4 3.1248,0.625 4.375,1.875 1.6666,1.25 2.9166,2.2922 3.75,3.125 h 0.625 l 1.25,-1.25 v -1.25 c -1.6e-4,-3.7495 -4.5834,-5.6245 -13.75,-5.625 -10.833,4.7e-4 -16.25,3.1255 -16.25,9.375 -1.6e-4,3.7505 2.2916,6.8755 6.875,9.375 4.5833,2.0838 8.9583,3.1255 13.125,3.125 h 3.125 l 13.125,-2.5 30,-13.125 10,-3.125 m 31.25,-3.125 -5,1.875 -15,1.25 c -10.417,0.83437 -24.167,7.2922 -41.25,19.375 2.0831,0.41719 3.7498,0.83437 5,1.25 1.6666,4.7e-4 2.9166,4.7e-4 3.75,0 2.0831,4.7e-4 3.3331,-0.83281 3.75,-2.5 l 0.625,-1.875 c 0.41719,-0.41562 2.4998,-1.0406 6.25,-1.875 0.83281,-0.41562 2.2916,-1.0406 4.375,-1.875 2.0831,-0.83281 4.7916,-2.0828 8.125,-3.75 0.83281,-0.41562 2.2916,-0.83281 4.375,-1.25 2.4998,-0.41563 5.8331,-1.0406 10,-1.875 l 20.625,-2.5 3.75,-0.625 c 17.5,-0.83281 31.875,1.4594 43.125,6.875 l 21.25,9.375 11.25,-1.25 -6.25,-2.5 c -8.3336,-4.1662 -15.417,-7.2912 -21.25,-9.375 -5.8336,-2.0828 -10.209,-3.5412 -13.125,-4.375 -7.5002,-2.0828 -20.209,-3.3328 -38.125,-3.75 l -6.25,-0.625 m 118.12,1.25 -6.875,7.5 -0.625,9.375 c -3.1e-4,2.9172 1.4578,4.3755 4.375,4.375 2.9164,4.7e-4 4.7914,-0.20781 5.625,-0.625 1.25,-10.833 6.458,-16.25 15.625,-16.25 1.6664,4.7e-4 2.9164,0.41719 3.75,1.25 l 1.25,1.25 2.5,1.875 c 0.41719,0.41719 0.625,1.4594 0.625,3.125 v 1.25 c 0.41562,4.1672 -1.8753,6.0422 -6.875,5.625 h -1.875 c 1.6664,2.5005 3.333,3.7505 5,3.75 6.2497,4.7e-4 9.3747,-3.1245 9.375,-9.375 -3.1e-4,-9.1662 -5.0003,-13.75 -15,-13.75 -3.7503,4.7e-4 -8.1253,1.8755 -13.125,5.625 v -5 h -3.75 m 110.62,2.5 c -3.3338,0.83438 -5.8338,1.4594 -7.5,1.875 -0.83438,0.41719 -2.917,1.6672 -6.25,3.75 -3.3338,1.6672 -8.3338,4.1672 -15,7.5 -10.417,4.5838 -18.125,6.8755 -23.125,6.875 -7.5003,4.7e-4 -11.25,-3.1245 -11.25,-9.375 -3.1e-4,-3.7495 1.4578,-5.6245 4.375,-5.625 2.083,4.7e-4 5.208,2.0838 9.375,6.25 1.25,-0.41562 2.4997,-1.25 3.75,-2.5 l -3.125,-2.5 -1.875,-4.375 c -1.25,-3.3328 -4.3753,-4.9995 -9.375,-5 -8.3338,4.7e-4 -12.5,4.5838 -12.5,13.75 -3.1e-4,3.7505 1.4578,7.2922 4.375,10.625 3.333,2.9172 7.083,4.3755 11.25,4.375 6.6662,4.7e-4 13.75,-1.8745 21.25,-5.625 l 11.875,-6.25 2.5,-0.625 11.25,-8.125 4.375,-1.875 5.625,-3.125 M 368.1,157.91 c -3.7503,-2.9162 -5.6253,-6.0412 -5.625,-9.375 -3.1e-4,-4.1662 1.6664,-6.2495 5,-6.25 2.083,4.7e-4 4.3747,2.2922 6.875,6.875 l 0.625,-3.75 c -2.5003,-4.5828 -5.6253,-6.8745 -9.375,-6.875 -6.2503,4.7e-4 -9.3753,2.7088 -9.375,8.125 -3.1e-4,8.7505 3.1247,12.709 9.375,11.875 l 2.5,-0.625 m 218.12,-3.75 v -1.25 l -8.75,-5 -21.25,-6.875 -1.875,-1.875 c 0.41562,4.7e-4 -1.0422,0.41719 -4.375,1.25 h -1.875 c -1.25,4.7e-4 -5.2088,-0.625 -11.875,-1.875 h -5.625 c -10.417,4.7e-4 -23.125,3.7505 -38.125,11.25 -9.5838,5.0005 -15.834,10.209 -18.75,15.625 -2.0838,3.3338 -3.542,5.8338 -4.375,7.5 -0.83438,1.667 -1.25,2.5005 -1.25,2.5 l 3.125,2.5 c 0.83281,0.41719 1.4578,0.83438 1.875,1.25 0.41562,4.7e-4 0.625,4.7e-4 0.625,0 1.25,4.7e-4 2.9162,-3.1245 5,-9.375 2.4995,-6.6662 9.583,-12.5 21.25,-17.5 10.833,-5.4162 24.166,-8.1245 40,-8.125 3.7495,4.7e-4 5.8328,0.20938 6.25,0.625 l 8.75,2.5 h 5 l 17.5,6.25 8.75,0.625 m -1.25,-6.25 0.625,-0.625 v -1.25 c -5.8339,-4.5828 -7.7089,-6.8745 -5.625,-6.875 -1.6672,4.7e-4 -2.5005,0.83438 -2.5,2.5 -4.7e-4,1.25 2.4995,3.3338 7.5,6.25 m 13.75,0.625 -7.5,-3.75 c -0.41719,0.83438 -0.625,3.1255 -0.625,6.875 -4.7e-4,2.5005 1.8745,5.6255 5.625,9.375 7.9161,6.6672 11.875,11.667 11.875,15 -4.7e-4,2.0838 -0.625,3.1255 -1.875,3.125 -1.6672,4.7e-4 -3.3339,-3.333 -5,-10 -0.41719,-0.41562 -1.0422,-1.0406 -1.875,-1.875 -0.41719,-0.83281 -1.0422,-1.6662 -1.875,-2.5 -6.6672,-4.5828 -13.125,-7.2912 -19.375,-8.125 l 0.625,2.5 c -4.7e-4,0.83438 -1.6672,1.25 -5,1.25 h -1.875 c -7.9172,4.7e-4 -11.875,2.7088 -11.875,8.125 -4.7e-4,6.667 2.7078,10 8.125,10 h 3.75 c -1.25,-2.4995 -1.8755,-4.5828 -1.875,-6.25 -4.7e-4,-2.4995 2.0828,-3.7495 6.25,-3.75 5.4161,4.7e-4 9.5828,2.0838 12.5,6.25 7.9161,11.25 12.708,17.084 14.375,17.5 l 0.625,0.625 h 1.875 c 9.1661,4.7e-4 13.958,-4.583 14.375,-13.75 -0.41719,-6.6662 -1.8755,-11.875 -4.375,-15.625 l -3.75,-5 -1.875,-7.5 c 1.25,-5.4162 3.3328,-8.1245 6.25,-8.125 2.4995,4.7e-4 4.7911,1.6672 6.875,5 v -1.875 c -4.7e-4,-4.9995 -2.9172,-7.4995 -8.75,-7.5 -6.2505,4.7e-4 -11.459,3.3338 -15.625,10 m -316.25,11.25 c -7.0836,-1.25 -10.625,-2.7078 -10.625,-4.375 -1.6e-4,-3.3328 4.5831,-5.6245 13.75,-6.875 0.83281,4.7e-4 1.6664,4.7e-4 2.5,0 0.83281,-0.41562 2.0831,-0.83281 3.75,-1.25 h -8.75 c -14.584,4.7e-4 -21.875,2.7088 -21.875,8.125 -1.6e-4,4.5838 4.3748,6.8755 13.125,6.875 2.4998,4.7e-4 5.2081,-0.83281 8.125,-2.5 m 242.5,13.75 c -4.5838,5.8338 -8.542,8.7505 -11.875,8.75 -5.8338,4.7e-4 -8.7505,-3.5412 -8.75,-10.625 -4.7e-4,-10.833 10.625,-18.75 31.875,-23.75 l -1.875,-0.625 -1.875,0.625 -12.5,1.25 c -9.5838,1.25 -16.875,6.8755 -21.875,16.875 -1.25,2.5005 -1.8755,5.4172 -1.875,8.75 -4.7e-4,10 4.7912,15 14.375,15 10.416,4.7e-4 15.416,-4.3745 15,-13.125 l -0.625,-3.125 m -219.38,-17.5 c 2.9164,-1.6662 5.2081,-2.4995 6.875,-2.5 l 5,0.625 h 8.75 l -7.5,-1.875 -5.625,-1.25 c -1.25,-0.41562 -2.9169,-0.625 -5,-0.625 h -1.875 c -5.4169,4.7e-4 -8.1252,2.0838 -8.125,6.25 -1.6e-4,3.3338 1.4578,5.0005 4.375,5 l 5.625,-1.25 -1.875,-1.875 -0.625,-2.5 m 239.38,4.375 20.625,-6.875 c -2.0838,-0.41562 -3.7505,-0.625 -5,-0.625 -1.25,-0.41562 -2.2922,-0.625 -3.125,-0.625 -9.5838,4.7e-4 -14.375,2.0838 -14.375,6.25 l 1.875,1.875 m -12.5,0.625 3.125,0.625 c 3.3328,4.7e-4 4.9995,-1.4578 5,-4.375 -4.7e-4,-2.0828 -1.4594,-3.1245 -4.375,-3.125 -0.83438,4.7e-4 -1.25,0.20938 -1.25,0.625 l -2.5,6.25 m -304.38,342.5 c -1.6e-4,14.583 -2.9169,26.667 -8.75,36.25 -5.4169,9.5834 -12.917,15 -22.5,16.25 l -13.75,1.875 c -3.3334,0.83281 -5.0002,1.6667 -5,2.5 -1.6e-4,1.25 1.25,2.5 3.75,3.75 2.4998,1.25 5.8333,1.875 10,1.875 l 60.625,-0.625 109.38,3.75 c 27.916,0.41719 50.208,-1.4578 66.875,-5.625 8.7497,-2.0833 18.125,-5.2083 28.125,-9.375 10.416,-4.5833 21.666,-9.7916 33.75,-15.625 -5.8338,-7.4998 -9.792,-16.667 -11.875,-27.5 -34.167,25 -70.209,37.083 -108.12,36.25 h -21.875 l -15.625,0.625 -41.25,-2.5 -10,0.625 c -11.25,0.83281 -16.875,-6.25 -16.875,-21.25 0.41719,-1.25 0.625,-3.1248 0.625,-5.625 v -5 -21.25 l -0.625,-290 c -1.6e-4,-7.4995 0.83281,-12.083 2.5,-13.75 2.0831,-2.083 7.7081,-3.333 16.875,-3.75 l 74.375,-3.125 21.25,0.625 c 40.833,1.667 77.708,17.709 110.62,48.125 l 8.125,7.5 c 1.6662,1.667 3.1245,3.3338 4.375,5 1.6662,1.667 3.1245,3.3338 4.375,5 4.1662,6.667 8.958,10 14.375,10 5.4162,3.1e-4 13.333,-2.2912 23.75,-6.875 2.9162,-1.25 4.3745,-2.4997 4.375,-3.75 l -0.625,-0.625 -11.875,-15 -17.5,-18.75 -5.625,-3.75 -9.375,-8.125 -17.5,-10.625 -10.625,-5.625 -10.625,-6.25 c -6.667,-3.333 -16.042,-6.2495 -28.125,-8.75 -12.084,-2.9162 -27.084,-5.2078 -45,-6.875 h -2.5 -68.125 l -64.375,2.5 -64.375,-3.125 h -8.125 c -7.5002,0.83437 -11.25,2.7088 -11.25,5.625 -1.6e-4,2.0838 2.7083,3.3338 8.125,3.75 30,5.8338 45,22.084 45,48.75 l 0.625,282.5 m 314.38,-331.88 c 0.83281,-3.3328 1.25,-5.2078 1.25,-5.625 -4.7e-4,-2.4995 -1.25,-3.7495 -3.75,-3.75 -2.5005,4.7e-4 -3.7505,1.25 -3.75,3.75 -4.7e-4,2.5005 2.0828,4.3755 6.25,5.625 M 555.6,169.78 v -2.5 c 0.41562,-3.7495 -0.83438,-5.6245 -3.75,-5.625 -3.3338,4.7e-4 -5.0005,1.6672 -5,5 -4.7e-4,2.5005 1.4578,3.7505 4.375,3.75 2.4995,4.7e-4 3.9578,-0.20781 4.375,-0.625 m -381.25,1.875 c 1.6666,4.5838 3.9583,7.292 6.875,8.125 l 20.625,6.25 c 0.83281,0.41719 2.2916,1.4594 4.375,3.125 2.4998,1.25 5.8331,3.542 10,6.875 -1.6e-4,4.7e-4 0.41719,0.41719 1.25,1.25 0.83281,0.41719 2.0831,1.25 3.75,2.5 -6.2502,-11.666 -16.667,-19.375 -31.25,-23.125 -2.9167,-0.83281 -5.6252,-1.6662 -8.125,-2.5 -2.5002,-0.83281 -5.0002,-1.6662 -7.5,-2.5 m 358.12,-0.625 -0.625,5.625 v 4.375 c -0.83438,10.834 4.5828,18.542 16.25,23.125 l -1.25,2.5 c -1.25,-0.41562 -2.9172,-0.625 -5,-0.625 -3.3338,4.7e-4 -7.0838,1.25 -11.25,3.75 3.3328,5.0005 6.0412,7.917 8.125,8.75 l 12.5,7.5 c 3.3328,2.0838 4.9995,6.042 5,11.875 -4.7e-4,10.834 -4.3755,20.209 -13.125,28.125 13.333,-2.4997 20.208,-14.583 20.625,-36.25 h 1.875 v 5.625 c 0.41562,3.7503 -1.6672,11.042 -6.25,21.875 h 1.25 c 7.0828,-8.333 10.625,-17.916 10.625,-28.75 -4.7e-4,-2.9162 -0.41719,-6.0412 -1.25,-9.375 -3.3338,-5.833 -5.0005,-9.1662 -5,-10 -4.7e-4,-0.41562 0.20781,-0.625 0.625,-0.625 4.9995,4.7e-4 7.4995,6.8755 7.5,20.625 -4.7e-4,6.667 -1.4594,13.125 -4.375,19.375 7.4995,-7.083 11.041,-13.958 10.625,-20.625 v -0.625 l -1.25,-12.5 1.875,0.625 0.625,3.75 v 1.25 l 1.25,6.875 1.25,-6.25 1.25,-5.625 c 0.41562,-2.9162 0.625,-5.208 0.625,-6.875 0.41562,-1.6662 0.625,-2.708 0.625,-3.125 v -1.875 l -1.875,-10 -0.625,-10 c -6.6672,4.7e-4 -10.625,2.5005 -11.875,7.5 h -0.625 c -2.0838,4.7e-4 -3.3338,-0.83281 -3.75,-2.5 -3.3338,-4.583 -7.7088,-7.4995 -13.125,-8.75 l -11.875,-1.875 c -4.7e-4,4.7e-4 -0.83438,-0.625 -2.5,-1.875 -1.25,-1.25 -3.5422,-2.9162 -6.875,-5 m -231.25,15 -12.5,1.25 -16.25,1.25 c -2.9169,4.7e-4 -5.0002,3.542 -6.25,10.625 l 0.625,18.125 -0.625,24.375 0.625,8.75 v 40 l 0.625,11.25 -0.625,225.62 c 0.83281,9.5834 4.1664,15 10,16.25 l -2.5,-5 -2.5,-345 95.625,-4.375 c 20.833,-0.41562 44.583,4.167 71.25,13.75 22.916,9.5838 40.833,21.459 53.75,35.625 7.9162,9.167 12.708,14.167 14.375,15 0.41562,0.41719 1.8745,1.25 4.375,2.5 -21.25,-26.666 -43.542,-45.416 -66.875,-56.25 -22.917,-11.25 -52.292,-16.458 -88.125,-15.625 h -11.25 l -43.75,1.875 m -114.38,155 c 0.41719,2.0836 0.625,3.7503 0.625,5 0.41719,1.25 0.625,2.0836 0.625,2.5 -1.6e-4,2.9169 -1.0422,6.0419 -3.125,9.375 -2.0834,3.3336 -4.5834,5.0003 -7.5,5 -4.5834,3.1e-4 -6.6667,-1.4578 -6.25,-4.375 V 357.9 l 0.625,-1.25 7.5,-11.25 c 0.41719,-0.41719 0.625,-1.6664 0.625,-3.75 -1.6e-4,-5.4164 -1.6667,-8.1247 -5,-8.125 -2.9167,3.1e-4 -5.8334,1.25 -8.75,3.75 0.41719,-0.41562 1.4578,-0.625 3.125,-0.625 2.0833,3.1e-4 3.1248,1.25 3.125,3.75 v 1.875 l -5.625,13.75 c -1.6e-4,8.7503 4.5833,13.125 13.75,13.125 1.25,3.1e-4 2.0833,-0.20781 2.5,-0.625 l 8.125,-4.375 0.625,-1.25 5,-6.875 0.625,-8.125 7.5,0.625 v -6.875 c -1.6e-4,-4.9997 -1.25,-11.25 -3.75,-18.75 -0.83281,-2.9164 -1.6667,-4.7914 -2.5,-5.625 l -8.125,-8.125 0.625,-2.5 6.25,-0.625 v -8.75 c -1.25,-8.7497 -3.3334,-14.583 -6.25,-17.5 l -11.875,-16.25 c -1.6667,-1.6662 -2.5002,-4.1662 -2.5,-7.5 -1.6e-4,-1.6662 0.41719,-2.4997 1.25,-2.5 2.0833,3.1e-4 3.5416,2.5003 4.375,7.5 0.41719,1.25 0.625,2.292 0.625,3.125 l 0.625,0.625 10.625,13.125 5.625,11.875 4.375,1.875 8.125,1.875 6.25,3.125 c 0.41719,-1.25 0.625,-3.333 0.625,-6.25 -1.6e-4,-3.7497 -3.5419,-7.9164 -10.625,-12.5 10.417,-3.7497 15.625,-11.458 15.625,-23.125 -1.6e-4,-6.2497 -3.1252,-11.041 -9.375,-14.375 l -14.375,-8.125 c -2.0834,-1.25 -3.1252,-3.5412 -3.125,-6.875 -1.6e-4,-7.9162 3.7498,-11.875 11.25,-11.875 3.3331,4.7e-4 5.4166,0.20938 6.25,0.625 -2.9169,-2.9162 -5.8334,-4.3745 -8.75,-4.375 -10.417,4.7e-4 -15.625,5.417 -15.625,16.25 -1.6e-4,8.7503 1.6666,14.375 5,16.875 l 15,9.375 c 3.3331,2.0838 4.9998,4.5838 5,7.5 -1.6e-4,1.667 -0.625,3.3338 -1.875,5 -1.6669,0.41719 -3.1252,0.83438 -4.375,1.25 -0.83281,3.1e-4 -1.6667,3.1e-4 -2.5,0 -4.5834,3.1e-4 -8.9584,-2.9162 -13.125,-8.75 -3.7502,-5.833 -6.0417,-12.5 -6.875,-20 -0.41719,-1.25 -0.625,-3.1247 -0.625,-5.625 v -6.25 c -1.6e-4,-9.9995 1.25,-17.291 3.75,-21.875 4.5833,-8.333 6.8748,-13.125 6.875,-14.375 -1.6e-4,-1.25 -0.625,-1.8745 -1.875,-1.875 h -3.125 l -3.75,-0.625 -6.875,11.25 -8.125,20.625 c -0.41719,1.25 -0.83281,2.917 -1.25,5 -0.41719,2.0838 -1.0422,4.5838 -1.875,7.5 -1.25,11.25 -1.8752,18.959 -1.875,23.125 v 6.875 c -1.6e-4,1.667 -1.6e-4,3.542 0,5.625 -1.6e-4,1.667 0.20781,3.9588 0.625,6.875 0.41719,1.25 0.625,2.917 0.625,5 v 2.5 l 13.75,40.625 c 1.25,3.7503 2.4998,10.209 3.75,19.375 m 13.75,-151.25 c -1.6667,2.917 -2.5002,5.6255 -2.5,8.125 -1.6e-4,5.417 2.0833,7.917 6.25,7.5 l 4.375,-0.625 c -5.0002,-2.083 -7.0834,-5.4162 -6.25,-10 v -3.75 l -1.875,-1.25 m 413.75,5 -10.625,2.5 -0.625,0.625 c -4.7e-4,4.167 2.9161,6.2505 8.75,6.25 8.3328,4.7e-4 12.5,-3.1245 12.5,-9.375 -4.7e-4,-2.4995 -1.0422,-3.7495 -3.125,-3.75 h -0.625 l -6.25,3.75 M 356.84,210.4 c 0.83281,-5.833 2.7081,-8.7495 5.625,-8.75 h 7.5 l 5.625,-3.75 c -3.7503,-2.4995 -7.0836,-3.7495 -10,-3.75 -8.7503,4.7e-4 -13.125,3.3338 -13.125,10 -3.1e-4,1.667 1.4578,3.7505 4.375,6.25 m 41.875,72.5 c 4.1664,-4.1664 6.6664,-7.083 7.5,-8.75 0.83281,-2.083 1.25,-6.2497 1.25,-12.5 v -2.5 l -0.625,-9.375 V 242.9 l -1.25,-8.125 c -0.83438,-5.4162 -2.0836,-11.875 -3.75,-19.375 l -5,-11.875 -3.125,-6.875 -5.625,-1.875 h -3.75 l 6.25,11.875 4.375,11.25 2.5,8.75 c 1.6664,5.0003 2.4997,14.167 2.5,27.5 -3.1e-4,3.3338 -0.625,7.917 -1.875,13.75 -0.83281,5.417 -1.25,9.5838 -1.25,12.5 -3.1e-4,0.41719 0.625,1.25 1.875,2.5 m -119.38,-85 0.625,6.875 0.625,5 c -1.6e-4,2.5005 0.83281,5.2088 2.5,8.125 l 6.25,14.375 c -1.6e-4,0.83438 1.0406,2.292 3.125,4.375 2.4998,1.667 3.7498,2.917 3.75,3.75 -0.41719,0.41719 -0.625,0.83438 -0.625,1.25 -1.6e-4,0.41719 -0.20938,0.83438 -0.625,1.25 l -7.5,-1.875 c 0.83281,7.0838 2.0831,11.875 3.75,14.375 l 8.75,12.5 c 6.2498,8.3338 9.3748,17.292 9.375,26.875 -1.6e-4,12.917 -3.1252,21.875 -9.375,26.875 l -5,4.375 -7.5,6.25 c -1.25,1.25 -2.7086,2.0836 -4.375,2.5 -4.5836,2.0836 -6.8752,3.7503 -6.875,5 -1.6e-4,1.6669 1.0422,2.5003 3.125,2.5 10.416,3.1e-4 21.041,-8.5414 31.875,-25.625 l 1.25,3.125 -5.625,7.5 -5,5 -6.875,6.25 -4.375,1.25 h 8.125 c 1.25,3.1e-4 3.3331,-0.83281 6.25,-2.5 12.5,-9.1664 20.625,-22.083 24.375,-38.75 0.83281,-4.1664 1.4578,-7.4997 1.875,-10 0.41562,-2.9164 0.625,-4.9997 0.625,-6.25 L 331.21,280.4 v -2.5 l -1.875,-11.875 c 0.41719,-1.25 0.83281,-1.8747 1.25,-1.875 l 1.875,2.5 v 3.125 1.25 l 1.25,13.125 v 3.125 c 0.41719,16.25 -8.5419,33.334 -26.875,51.25 6.2498,-1.6664 9.9997,-2.9164 11.25,-3.75 1.6664,-1.25 3.9581,-3.9581 6.875,-8.125 l 3.125,-3.75 c 0.83281,-1.6664 1.8747,-3.333 3.125,-5 1.25,-2.083 2.2914,-4.1664 3.125,-6.25 h 1.25 c -2.5003,7.0836 -6.8753,13.959 -13.125,20.625 20.416,-5.4164 35.416,-30.833 45,-76.25 l 2.5,-1.25 c -2.5003,19.584 -10.209,38.959 -23.125,58.125 l -10,13.125 4.375,-3.125 c 11.25,-7.9164 19.583,-18.333 25,-31.25 l 1.875,0.625 -3.75,8.125 c 7.083,-8.333 13.75,-22.5 20,-42.5 1.6664,-3.7497 2.4997,-7.4997 2.5,-11.25 -3.1e-4,-3.333 -0.20938,-5.6247 -0.625,-6.875 -1.25,2.0838 -2.292,3.1253 -3.125,3.125 l -1.875,-0.625 c 0.41719,-1.25 0.83281,-4.1662 1.25,-8.75 0.41719,-4.583 0.83281,-6.8747 1.25,-6.875 l -3.125,-26.875 -1.875,-0.625 -0.625,1.875 c -9.167,4.5838 -14.584,11.667 -16.25,21.25 h -1.875 c -1.25,4.7e-4 -2.7086,-1.25 -4.375,-3.75 -3.3336,7.0838 -4.7919,11.042 -4.375,11.875 v 1.25 1.25 c 1.25,5.0003 1.8747,10 1.875,15 -3.1e-4,9.167 -1.0422,13.75 -3.125,13.75 -1.6669,3.1e-4 -2.5003,-0.625 -2.5,-1.875 l 0.625,-1.25 c 0.41719,-2.083 0.625,-4.1662 0.625,-6.25 0.41562,-2.083 0.625,-4.1662 0.625,-6.25 -3.1e-4,-13.75 -1.6669,-25.208 -5,-34.375 -3.3336,-9.583 -7.2919,-14.375 -11.875,-14.375 -2.0836,4.7e-4 -3.1253,0.83438 -3.125,2.5 l -0.625,4.375 c -0.41719,1.667 -1.0422,2.5005 -1.875,2.5 -0.83281,-0.41562 -1.6669,-1.0406 -2.5,-1.875 -0.83437,-0.83281 -2.0836,-1.6662 -3.75,-2.5 -0.83438,-0.83281 -2.7086,-1.6662 -5.625,-2.5 l -8.125,-2.5 c -3.3336,-0.83281 -5.6252,-1.0406 -6.875,-0.625 h -6.875 l -13.75,1.25 m 119.38,-1.875 10,31.875 c 1.25,-4.583 1.6664,-7.083 1.25,-7.5 v -5.625 l -0.625,-5 -2.5,-6.25 -1.25,-5.625 -6.875,-1.875 m -14.375,9.375 0.625,6.25 5,13.75 c 0.83281,2.5003 1.6664,5.8338 2.5,10 0.83281,4.167 1.6664,9.167 2.5,15 v 5 c -3.1e-4,5.417 -0.41719,9.5838 -1.25,12.5 -0.41719,2.5003 -0.625,4.167 -0.625,5 -3.1e-4,1.25 0.83281,2.7088 2.5,4.375 1.6664,-5.4162 2.4997,-12.291 2.5,-20.625 -3.1e-4,-21.25 -4.5836,-38.333 -13.75,-51.25 m 230,2.5 1.25,6.875 0.625,15 -0.625,11.25 c -0.83438,3.7503 -1.6672,6.667 -2.5,8.75 -0.41719,1.667 -0.625,2.5003 -0.625,2.5 -4.7e-4,1.25 1.8745,2.7088 5.625,4.375 l 1.875,-6.25 1.25,-3.75 c 0.41563,-1.6662 0.83281,-4.3747 1.25,-8.125 0.41563,-3.7497 0.83281,-8.5412 1.25,-14.375 v -2.5 -1.875 c -4.7e-4,-1.6662 -0.20937,-3.1245 -0.625,-4.375 l -0.625,-5 0.625,-2.5 c -4.7e-4,-1.6662 -0.83437,-2.4995 -2.5,-2.5 l -1.25,0.625 -5,1.875 m -204.38,51.875 -1.25,15.625 3.75,-1.25 1.25,-6.875 1.25,-13.75 c 2.4997,-21.25 8.958,-31.875 19.375,-31.875 6.6662,4.7e-4 11.041,3.542 13.125,10.625 h 2.5 c 1.25,-2.9162 1.8747,-5.4162 1.875,-7.5 -3.1e-4,-6.6662 -4.792,-9.583 -14.375,-8.75 h -1.875 v -3.75 c -0.41719,-0.41562 -1.0422,-0.625 -1.875,-0.625 h -1.25 l -10,3.125 c -6.667,4.167 -10.625,16.667 -11.875,37.5 l -0.625,7.5 m 54.375,2.5 c -3.3338,-2.083 -6.667,-3.1247 -10,-3.125 l -0.625,-1.875 c -7.917,1.667 -11.875,4.3753 -11.875,8.125 -3.1e-4,1.667 0.625,2.7088 1.875,3.125 h 0.625 1.25 l 4.375,-6.25 c 0.83281,-0.83281 2.083,-1.25 3.75,-1.25 5.833,3.1e-4 8.5412,2.5003 8.125,7.5 v 0.625 1.875 c -0.41719,0.83438 -1.0422,2.0838 -1.875,3.75 -0.83437,1.667 -2.292,3.9586 -4.375,6.875 -2.5003,3.3336 -3.7503,6.4586 -3.75,9.375 -3.1e-4,2.5003 0.625,4.3753 1.875,5.625 l 8.125,8.75 -1.25,6.25 6.25,-0.625 c 17.916,-0.41719 26.875,-7.2914 26.875,-20.625 -4.7e-4,-9.1664 -2.0838,-17.083 -6.25,-23.75 L 469.335,237.275 462.46,220.4 c -0.41719,-1.6662 -1.25,-2.4995 -2.5,-2.5 l -0.625,0.625 c -3.1e-4,1.667 0.20781,2.917 0.625,3.75 0.83281,5.8338 2.2912,10.417 4.375,13.75 l 14.375,25.625 c 3.7495,7.0838 5.6245,13.334 5.625,18.75 -4.7e-4,11.667 -5.0005,17.5 -15,17.5 -7.5003,3.1e-4 -11.25,-2.9164 -11.25,-8.75 l 0.625,-1.25 7.5,-17.5 v -3.125 c -3.1e-4,-1.25 -0.625,-2.9162 -1.875,-5 m 125,-23.125 c 0.41563,-7.9162 3.1245,-11.875 8.125,-11.875 6.6661,3.1e-4 9.9995,4.5838 10,13.75 v 5 c -4.7e-4,2.0838 -0.20937,3.7503 -0.625,5 l 1.875,0.625 c 2.4995,-4.9997 3.7495,-9.3747 3.75,-13.125 -4.7e-4,-12.5 -5.2089,-18.75 -15.625,-18.75 -8.3339,4.7e-4 -12.5,5.2088 -12.5,15.625 -4.7e-4,3.3338 1.25,4.5838 3.75,3.75 h 1.25 m -121.88,-16.875 c 10.416,31.25 31.041,46.875 61.875,46.875 8.7495,3.1e-4 16.041,-5.6247 21.875,-16.875 -8.7505,6.2503 -17.917,9.3753 -27.5,9.375 -8.3338,3.1e-4 -16.875,-2.4997 -25.625,-7.5 -8.7505,-4.9997 -14.792,-11.041 -18.125,-18.125 -2.0838,-4.1662 -3.542,-6.6662 -4.375,-7.5 -0.83437,-0.83281 -3.542,-2.9162 -8.125,-6.25 m -31.25,35.625 c 0.41563,1.667 1.25,2.5003 2.5,2.5 4.1662,3.1e-4 6.2497,-1.4578 6.25,-4.375 -3.1e-4,-0.83281 -0.20937,-1.4578 -0.625,-1.875 l -3.125,-0.625 -5,4.375 m 153.12,25 4.375,-4.375 1.875,-10 c 1.25,-6.6662 4.5828,-9.9997 10,-10 10.833,3.1e-4 16.25,13.125 16.25,39.375 -4.7e-4,0.83438 -0.20937,2.292 -0.625,4.375 -4.7e-4,2.0836 -0.20937,4.5836 -0.625,7.5 l -0.625,5.625 c -4.7e-4,0.41719 -0.41719,1.4578 -1.25,3.125 -0.83437,1.667 -1.6672,3.542 -2.5,5.625 -0.83437,1.667 -1.6672,3.3336 -2.5,5 -0.41719,1.6669 -0.625,2.5003 -0.625,2.5 -4.7e-4,-0.41719 0.41563,1.4578 1.25,5.625 7.9161,-11.666 11.874,-25.416 11.875,-41.25 -6.2e-4,-27.5 -7.2922,-41.25 -21.875,-41.25 -3.3339,3.1e-4 -6.6672,2.292 -10,6.875 -3.3339,4.167 -5.0005,8.542 -5,13.125 l -0.625,1.875 c -4.7e-4,2.917 0.20781,5.0003 0.625,6.25 m -311.25,-20 c -1.6669,0.41719 -2.5002,1.8753 -2.5,4.375 -1.6e-4,3.7503 1.6664,5.6253 5,5.625 3.3331,3.1e-4 4.9998,-1.6662 5,-5 -1.6e-4,-3.333 -2.2919,-4.9997 -6.875,-5 h -0.625 m 309.38,70 0.625,4.375 0.625,4.375 c 2.9161,-0.41719 4.3745,-1.25 4.375,-2.5 -4.7e-4,-0.41562 -0.83437,-4.1664 -2.5,-11.25 -1.6672,-7.083 -4.1672,-15 -7.5,-23.75 -2.9172,-8.7497 -7.0839,-18.125 -12.5,-28.125 l -3.125,-6.875 -3.75,-6.25 -1.875,-1.25 5.625,12.5 c 10.833,22.5 17.5,42.084 20,58.75 m -27.5,-70 c -10.417,6.667 -21.042,10 -31.875,10 h -3.75 l 3.125,6.25 4.375,8.75 5.625,10.625 c 0.41563,0.83281 0.83281,2.292 1.25,4.375 0.41563,1.667 1.0406,3.9586 1.875,6.875 0.41563,0.83438 0.83281,2.292 1.25,4.375 0.83281,1.667 1.6662,4.167 2.5,7.5 0.41563,2.5003 1.0406,5.2086 1.875,8.125 0.83281,2.5003 1.6662,5.2086 2.5,8.125 1.6662,1.25 4.3745,1.8753 8.125,1.875 2.0828,3.1e-4 6.0412,0.41719 11.875,1.25 5.8328,0.41719 10.416,0.625 13.75,0.625 h 5 c -4.1672,-26.25 -13.334,-52.5 -27.5,-78.75 m 46.875,0.625 c -1.6672,2.917 -3.5422,6.042 -5.625,9.375 -2.0839,3.3338 -4.1672,6.667 -6.25,10 l -6.25,5 -1.25,1.875 -3.125,2.5 0.625,4.375 c -4.7e-4,2.0836 0.83281,2.917 2.5,2.5 l 0.625,-0.625 3.125,-3.75 3.75,-1.875 3.75,-6.25 4.375,-3.75 4.375,-6.875 c 1.25,-1.6662 2.0828,-2.9162 2.5,-3.75 0.83281,-1.25 1.4578,-2.083 1.875,-2.5 v -1.25 c -4.7e-4,-1.25 -1.6672,-2.9162 -5,-5 m -152.5,9.375 c -3.1e-4,-1.25 0.20781,-2.083 0.625,-2.5 -3.1e-4,-2.4997 -1.4594,-3.7497 -4.375,-3.75 -2.917,3.1e-4 -4.3753,1.4594 -4.375,4.375 -3.1e-4,2.917 1.25,4.3753 3.75,4.375 1.25,3.1e-4 2.708,-0.83281 4.375,-2.5 m -18.125,-0.625 -0.625,5 c 3.333,3.1e-4 5.208,-1.4578 5.625,-4.375 l -3.125,-5.625 h -3.125 l 1.25,5 m -148.75,0 c -1.6669,0.41719 -2.5002,1.25 -2.5,2.5 l 0.625,3.125 h 2.5 c 10.833,-0.83281 16.25,5.8336 16.25,20 -1.6e-4,3.7503 -0.83281,7.292 -2.5,10.625 h 2.5 l 1.25,-6.25 c 0.41563,-1.25 0.625,-2.708 0.625,-4.375 v -3.75 c -1.6e-4,-15 -5.6252,-22.5 -16.875,-22.5 l -1.875,0.625 m 133.75,8.75 c -2.0838,-2.083 -3.542,-3.1247 -4.375,-3.125 -10,3.1e-4 -17.5,6.4586 -22.5,19.375 l -0.625,-3.75 1.875,-8.125 -3.125,-5 -3.125,0.625 -1.25,-4.375 -3.75,-3.125 v 12.5 15.625 c -0.83281,2.0836 1.0422,3.9586 5.625,5.625 0.83281,0.41719 2.708,0.625 5.625,0.625 1.6664,3.1e-4 4.1664,-1.25 7.5,-3.75 l 1.875,-1.875 0.625,-0.625 5.625,-12.5 c 0.41563,-0.41562 0.83281,-1.0406 1.25,-1.875 0.83281,-0.83281 2.083,-1.6664 3.75,-2.5 l 5,-3.75 m -143.12,-6.25 c -2.0836,3.3338 -3.1252,5.2086 -3.125,5.625 -1.6e-4,2.917 1.25,4.3753 3.75,4.375 2.9164,3.1e-4 4.3748,-1.4578 4.375,-4.375 -1.6e-4,-1.6664 -1.6669,-3.5412 -5,-5.625 m 226.88,1.25 v 1.875 c -3.3338,2.5003 -5.0005,4.5836 -5,6.25 -4.7e-4,1.667 0.83281,2.7086 2.5,3.125 1.6662,-4.1664 3.5412,-6.2497 5.625,-6.25 6.6662,3.1e-4 9.9995,3.9586 10,11.875 -4.7e-4,7.0836 -3.1255,12.5 -9.375,16.25 -5.8338,3.7503 -17.084,7.0836 -33.75,10 -2.917,0.83438 -5.8338,1.667 -8.75,2.5 -2.5003,0.83438 -5.2088,1.667 -8.125,2.5 l 10,-0.625 27.5,-2.5 c 17.916,-2.083 28.333,-7.2914 31.25,-15.625 l 1.875,-5 c 0.41563,-1.6664 0.625,-2.9164 0.625,-3.75 0.41563,-0.83281 0.625,-1.25 0.625,-1.25 -4.7e-4,-0.41719 -0.41719,-0.625 -1.25,-0.625 -2.5005,3.1e-4 -4.1672,0.20938 -5,0.625 v -3.75 -4.375 c 0.41563,-8.7497 -4.167,-13.125 -13.75,-13.125 l -5,1.875 m -217.5,4.375 c -0.41719,0.41719 -0.83437,0.83438 -1.25,1.25 -0.41719,0.41719 -0.83437,1.0422 -1.25,1.875 l -0.625,1.25 c -1.6e-4,2.917 1.4578,4.3753 4.375,4.375 2.9164,3.1e-4 4.3748,-1.4578 4.375,-4.375 -1.6e-4,-2.9164 -1.6669,-4.3747 -5,-4.375 h -0.625 m -3.125,23.125 c -2.0836,-2.083 -3.5419,-3.1247 -4.375,-3.125 -1.6669,3.1e-4 -2.7086,0.625 -3.125,1.875 l -0.625,2.5 0.625,3.75 -0.625,6.875 0.625,6.875 6.25,-5 h 2.5 l -3.125,3.75 -5.625,4.375 v 3.75 l 5.625,-2.5 -3.125,3.125 -2.5,2.5 -0.625,1.875 v 2.5 c 6.6664,-2.9164 10.833,-5.6247 12.5,-8.125 l 2.5,-3.125 7.5,-8.125 1.875,-4.375 -2.5,-0.625 c 2.0831,-6.2497 3.1248,-11.25 3.125,-15 -1.6e-4,-2.083 -0.20937,-3.333 -0.625,-3.75 l -0.625,-0.625 -2.5,-1.875 -13.125,12.5 m -83.125,-5 c -1.6e-4,3.7503 3.9583,6.8753 11.875,9.375 3.3331,0.83438 4.9998,1.25 5,1.25 2.9166,3.1e-4 4.3748,-1.6664 4.375,-5 -1.6e-4,0.41719 -0.41719,-1.0422 -1.25,-4.375 -0.41719,2.917 -2.2919,4.3753 -5.625,4.375 -4.1669,3.1e-4 -8.9584,-1.8747 -14.375,-5.625 m 393.75,-1.875 c -1.6672,1.667 -2.5005,2.917 -2.5,3.75 -4.7e-4,6.2503 0.83281,9.3753 2.5,9.375 l 5.625,13.75 5.625,13.125 6.875,20.625 c 0.83281,0.83438 1.4578,1.25 1.875,1.25 2.0828,3.1e-4 3.1245,-0.83281 3.125,-2.5 V 355.4 l -20,-51.25 -0.625,-2.5 -2.5,-5 m -149.38,0.625 -3.125,2.5 -3.75,7.5 -2.5,1.875 -5.625,6.25 -35,18.125 c -7.0836,3.7503 -10.625,7.9169 -10.625,12.5 -3.1e-4,2.5003 1.4578,3.5419 4.375,3.125 h 0.625 v 1.875 c -15,5.4169 -30,15 -45,28.75 -15,13.334 -24.375,26.042 -28.125,38.125 l -6.25,17.5 c -2.5002,8.3334 -3.7502,12.917 -3.75,13.75 l -0.625,4.375 2.5,16.25 c 2.4998,-15 6.4581,-28.75 11.875,-41.25 5.4164,-12.916 11.666,-23.958 18.75,-33.125 7.4997,-9.5831 15.625,-16.875 24.375,-21.875 9.1664,-5.4164 18.75,-8.5414 28.75,-9.375 l -0.625,4.375 c -3.1e-4,5.0003 3.958,7.7086 11.875,8.125 h 17.5 c 4.9997,3.1e-4 10.416,1.6669 16.25,5 6.2497,3.3336 9.3747,7.2919 9.375,11.875 -3.1e-4,5.4169 -2.7088,8.1252 -8.125,8.125 -1.667,1.6e-4 -3.542,-1.6664 -5.625,-5 h -1.875 v 3.125 c -0.83437,5.0002 2.4997,7.5002 10,7.5 11.666,1.6e-4 17.5,-5.8331 17.5,-17.5 -3.1e-4,-7.9164 -4.3753,-14.375 -13.125,-19.375 5.4162,-0.41562 10.416,-2.2914 15,-5.625 -10.834,-7.0831 -22.917,-10.625 -36.25,-10.625 -2.5003,3.1e-4 -5.0003,0.20938 -7.5,0.625 -2.5003,3.1e-4 -5.0003,0.20938 -7.5,0.625 -0.41719,3.1e-4 -1.4578,0.20938 -3.125,0.625 -1.667,3.1e-4 -4.167,0.20938 -7.5,0.625 -0.41719,0.41719 -1.4578,0.625 -3.125,0.625 -1.25,3.1e-4 -2.292,0.20938 -3.125,0.625 l -0.625,-1.875 c 30.416,-4.1664 48.75,-15 55,-32.5 l -3.75,-1.25 -6.875,3.125 5.625,-5.625 c 4.1662,-4.1664 6.2497,-9.3747 6.25,-15.625 -3.1e-4,-2.9164 -0.83437,-5.208 -2.5,-6.875 m -244.38,8.125 c -0.83281,3.3336 -1.25,4.792 -1.25,4.375 -1.6e-4,4.5836 7.7083,11.25 23.125,20 v -7.5 L 211.205,315.4 c -0.83281,-0.41719 -2.0834,-1.4578 -3.75,-3.125 -1.25,-1.6664 -3.3334,-3.958 -6.25,-6.875 m 178.12,6.875 c 1.6664,5.417 5.208,8.1253 10.625,8.125 h 1.25 c 2.9164,-1.6664 4.3747,-3.5414 4.375,-5.625 v -2.5 l -7.5,-1.875 -5.625,-2.5 -0.625,-0.625 c -1.667,3.1e-4 -2.5003,1.4578 -2.5,4.375 v 0.625 m 160,5 c -5.4172,2.0836 -10.834,3.7503 -16.25,5 -5.0005,0.83438 -10,1.4578 -15,1.875 l -22.5,1.25 -22.5,1.25 c -8.7503,0.83281 -13.75,1.8753 -15,3.125 -0.83437,0.83281 -1.667,2.2919 -2.5,4.375 l 70.625,-5 25,-5.625 -1.875,-6.25 m -238.75,131.88 h 2.5 c 0.83281,1.6e-4 1.6664,-1.8748 2.5,-5.625 1.6664,-14.583 7.2914,-27.916 16.875,-40 l 14.375,-19.375 c 3.3331,-4.1664 5.6247,-7.2914 6.875,-9.375 1.6664,-2.0831 2.4997,-3.1247 2.5,-3.125 l 28.125,-27.5 c 1.6664,-1.6664 3.5414,-3.9581 5.625,-6.875 2.083,-3.3331 4.583,-7.708 7.5,-13.125 -2.917,-1.6664 -5.417,-2.4997 -7.5,-2.5 l -4.375,9.375 -5,6.25 -6.25,10 -30.625,31.25 -3.75,8.125 -0.625,0.625 -2.5,1.875 -4.375,6.875 -10,14.375 c -1.6669,2.0836 -3.3336,5.8336 -5,11.25 -1.6669,5.4169 -3.5419,12.292 -5.625,20.625 -1.6e-4,0.83281 -0.20937,1.8752 -0.625,3.125 -1.6e-4,0.83281 -0.20937,2.0834 -0.625,3.75 M 206.2,322.905 c 2.0833,5.0003 4.9998,8.5419 8.75,10.625 1.25,0.83281 2.4998,1.6669 3.75,2.5 1.6666,0.83438 3.3331,1.6669 5,2.5 v -2.5 c -1.6e-4,1.25 -4.1669,-1.6664 -12.5,-8.75 -0.41719,-0.41562 -1.0422,-1.0406 -1.875,-1.875 -0.83281,-0.83281 -1.8752,-1.6664 -3.125,-2.5 m 125,10.625 c -3.1e-4,5.4169 2.2914,8.5419 6.875,9.375 -0.41719,-0.83281 -0.625,-2.4997 -0.625,-5 -3.1e-4,-3.3331 1.8747,-4.9997 5.625,-5 5.8331,3.1e-4 8.7497,3.3336 8.75,10 -3.1e-4,3.7503 -0.83437,6.4586 -2.5,8.125 l -10,13.75 -1.25,5 5,-5 c 12.5,-12.916 18.75,-23.333 18.75,-31.25 v -1.875 l -3.125,-6.875 -5,2.5 -5,-3.125 -17.5,9.375 m -124.38,-1.25 1.25,10.625 5.625,10 c 3.3331,5.8336 4.9998,14.584 5,26.25 -1.6e-4,9.5836 -2.7084,17.5 -8.125,23.75 -5.0002,6.2502 -11.458,9.3752 -19.375,9.375 -11.25,1.6e-4 -16.875,-4.9998 -16.875,-15 -1.6e-4,-7.0831 3.3333,-10.625 10,-10.625 2.9166,1.6e-4 4.7916,1.0422 5.625,3.125 l 5,8.125 4.375,1.25 -1.25,-3.75 0.625,-5 c -1.6e-4,-3.3331 -1.6667,-6.0414 -5,-8.125 -3.3334,-2.4997 -6.6667,-3.7497 -10,-3.75 -10.833,3.1e-4 -16.25,6.0419 -16.25,18.125 -1.6e-4,5.8336 2.0833,12.084 6.25,18.75 -0.41719,0.41719 -0.83281,0.83438 -1.25,1.25 -0.41719,1.6e-4 -1.0422,0.41719 -1.875,1.25 0.41719,0.41719 0.625,0.83438 0.625,1.25 0.41719,0.41719 0.83281,0.83438 1.25,1.25 h -1.25 v 1.25 l 8.125,0.625 c 1.25,0.41719 4.1666,0.625 8.75,0.625 h 3.75 3.125 c 2.0833,1.6e-4 3.7498,-0.20781 5,-0.625 14.583,-9.5831 22.708,-24.166 24.375,-43.75 -0.83281,-18.75 -6.6669,-34.166 -17.5,-46.25 m 277.5,1.875 7.5,0.625 21.25,3.75 21.25,3.125 31.875,7.5 14.375,0.625 8.75,-0.625 c 10.833,-0.83281 16.25,-2.7081 16.25,-5.625 -4.7e-4,-1.6664 -0.83437,-2.4997 -2.5,-2.5 -4.7e-4,3.1e-4 -2.5005,1.0422 -7.5,3.125 -1.6672,0.41719 -4.5839,1.0422 -8.75,1.875 h -1.25 -0.625 l -6.25,-0.625 -10.625,-0.625 -17.5,-2.5 -13.125,-3.75 -8.125,-1.25 -10.625,-2.5 -9.375,-1.25 -4.375,-1.25 -7.5,0.625 -13.125,1.25 m -31.25,2.5 c -2.0838,0.41719 -4.3753,0.83281 -6.875,1.25 -2.0838,0.41719 -4.5838,1.0422 -7.5,1.875 l -5,5 -4.375,2.5 6.875,-1.25 26.875,-3.75 c 1.25,-0.41719 2.708,-0.625 4.375,-0.625 h 3.75 c 30.416,3.1e-4 55.416,6.0419 75,18.125 v -2.5 c 0.83281,-4.5831 -2.0838,-8.1247 -8.75,-10.625 -3.3338,-0.83281 -6.4588,-1.4578 -9.375,-1.875 -2.5005,-0.83281 -4.7922,-1.6664 -6.875,-2.5 l -8.75,-2.5 c -2.0838,-0.41719 -5.2088,-0.83281 -9.375,-1.25 -3.7505,-0.83281 -8.9588,-1.6664 -15.625,-2.5 -1.25,-0.41562 -3.3338,-0.625 -6.25,-0.625 h -5.625 -3.75 c -2.5003,3.1e-4 -4.792,0.20938 -6.875,0.625 l -11.875,0.625 m -151.88,33.75 c -1.25,2.0836 -1.8752,3.3336 -1.875,3.75 -1.6e-4,1.6669 1.25,3.3336 3.75,5 4.1664,2.9169 8.9581,4.3752 14.375,4.375 4.5831,1.6e-4 8.7497,-1.8747 12.5,-5.625 3.7497,-3.7497 5.6247,-7.9164 5.625,-12.5 -3.1e-4,-5.8331 -3.3336,-11.041 -10,-15.625 -6.6669,-4.9997 -14.167,-7.0831 -22.5,-6.25 h -1.25 l -10.625,0.625 -14.375,0.625 c -0.41719,0.41719 -0.625,1.0422 -0.625,1.875 -1.6e-4,2.0836 0.83281,3.1253 2.5,3.125 l 18.75,-1.25 c 6.6664,-0.41719 12.5,1.25 17.5,5 5.4164,3.3336 8.1247,7.2919 8.125,11.875 -3.1e-4,6.6669 -4.3753,10 -13.125,10 -3.3336,3.1e-4 -6.2502,-1.6664 -8.75,-5 M 431.81,351.03 c 1.25,0.41719 2.9162,0.625 5,0.625 h 2.5 c -3.1e-4,3.1e-4 2.083,-0.20781 6.25,-0.625 4.1662,-0.41719 8.958,-0.625 14.375,-0.625 l 5,-0.625 c 9.1662,-0.41562 17.291,1.8753 24.375,6.875 7.4995,4.5836 11.25,10 11.25,16.25 -4.7e-4,10.417 -4.792,15.625 -14.375,15.625 -5.8338,1.6e-4 -8.7505,-2.2914 -8.75,-6.875 l 0.625,-1.25 v -1.25 l 5.625,-6.875 c 0.41563,-0.41562 0.625,-1.4578 0.625,-3.125 -4.7e-4,-3.7497 -2.0838,-6.2497 -6.25,-7.5 l 1.25,-1.25 -1.875,4.375 1.25,6.25 -3.75,8.75 1.875,5.625 c 1.6662,5.4169 6.2495,8.1252 13.75,8.125 2.083,1.6e-4 6.6662,-1.0406 13.75,-3.125 0.41563,-0.41719 0.625,-1.25 0.625,-2.5 3.7495,-4.9998 5.6245,-9.1664 5.625,-12.5 -0.83437,-20 -15,-30 -42.5,-30 -11.25,3.1e-4 -18.334,0.625 -21.25,1.875 l -8.125,1.875 -6.875,1.875 m 68.75,-1.875 c 2.4995,2.0836 4.9995,4.3753 7.5,6.875 2.9162,2.0836 6.0412,4.5836 9.375,7.5 1.25,1.25 2.2912,1.8753 3.125,1.875 2.0828,3.1e-4 3.1245,-0.83281 3.125,-2.5 -4.7e-4,-6.2497 -7.7088,-10.833 -23.125,-13.75 m 36.875,84.375 c 13.75,5.8334 22.291,15.417 25.625,28.75 l 0.625,1.25 c 13.333,-22.5 21.458,-50.833 24.375,-85 v -2.5 c -4.7e-4,-1.6664 0.20781,-3.1247 0.625,-4.375 L 588.06,353.53 h -16.875 l -21.875,-3.125 v 35.625 c -4.7e-4,4.1669 -0.625,8.9586 -1.875,14.375 l -3.125,11.875 c -0.41719,2.0836 -1.25,4.7919 -2.5,8.125 -0.83437,3.3336 -2.2922,7.7086 -4.375,13.125 m 53.75,-80.625 -1.25,29.375 c -0.83437,10 -2.7089,21.25 -5.625,33.75 -5.8339,22.5 -11.042,36.875 -15.625,43.125 -2.9172,2.9169 -4.3755,5.6252 -4.375,8.125 -4.7e-4,-0.41719 0.41563,1.4578 1.25,5.625 1.25,-1.6666 2.0828,-2.9166 2.5,-3.75 l 1.25,-1.25 c 0.41563,-0.41719 3.1245,-6.0416 8.125,-16.875 l 5.625,-10.625 c 5.4161,-11.666 9.1661,-29.791 11.25,-54.375 l 0.625,-20.625 -0.625,-12.5 h -3.125 m -62.5,4.375 c -2.0838,0.83438 -3.1255,1.8753 -3.125,3.125 -4.7e-4,3.3336 1.6662,5.0003 5,5 2.9162,3.1e-4 4.3745,-1.25 4.375,-3.75 l -0.625,-1.25 c -4.7e-4,-0.83281 -0.20937,-1.25 -0.625,-1.25 l -5,-1.875 m 69.375,15.625 c 2.0828,8.3336 5.8328,12.5 11.25,12.5 2.4995,1.6e-4 3.7495,-0.83281 3.75,-2.5 -4.7e-4,-0.83281 -0.41719,-1.6664 -1.25,-2.5 l -5,-0.625 -1.875,-1.875 c -1.6672,-2.9164 -2.5005,-5.2081 -2.5,-6.875 -4.7e-4,-1.25 0.41563,-2.2914 1.25,-3.125 l 5,-6.875 h -1.875 -0.625 c -5.0005,3.1e-4 -7.7089,3.9586 -8.125,11.875 m 8.125,1.875 3.125,2.5 c 1.6661,-7.4997 4.5828,-11.25 8.75,-11.25 3.7495,3.1e-4 5.4161,3.1253 5,9.375 l -0.625,6.25 c 2.4995,-4.9997 3.7494,-8.5414 3.75,-10.625 -6.2e-4,-6.6664 -2.9172,-9.9997 -8.75,-10 -4.1672,3.1e-4 -7.7089,2.7086 -10.625,8.125 -0.41719,0.41719 -0.625,1.8753 -0.625,4.375 v 1.25 m -92.5,-8.125 c -0.41719,0.83281 -0.625,2.2919 -0.625,4.375 -4.7e-4,2.9169 1.25,4.3753 3.75,4.375 2.4995,3.1e-4 3.7495,-1.4578 3.75,-4.375 -4.7e-4,-1.6664 -2.292,-3.1247 -6.875,-4.375 m 14.375,1.25 c -2.9172,3.1e-4 -4.3755,1.25 -4.375,3.75 -4.7e-4,3.7503 1.6662,5.6253 5,5.625 3.3328,3.1e-4 4.9995,-1.6664 5,-5 -4.7e-4,-2.9164 -1.8755,-4.3747 -5.625,-4.375 m 89.375,49.375 c 0.41563,-1.6664 1.0406,-5.2081 1.875,-10.625 0.41563,-2.0831 0.625,-3.9581 0.625,-5.625 0.41563,-1.6664 0.625,-3.1248 0.625,-4.375 v -9.375 l -1.25,-15 c -4.7e-4,-2.0831 -0.625,-3.1247 -1.875,-3.125 h -0.625 c -0.83437,0.83438 -1.25,1.4578 -1.25,1.875 l -1.25,3.75 1.875,23.125 -1.25,15 2.5,4.375 m -76.25,-40 c -12.084,13.334 -23.959,20.625 -35.625,21.875 l -21.875,2.5 -6.25,1.25 -8.125,1.25 5.625,0.625 -14.375,1.25 c -1.667,0.41719 -3.9588,1.0422 -6.875,1.875 -2.5003,0.41719 -5.8338,1.4578 -10,3.125 -0.83437,0.41719 -1.667,0.83438 -2.5,1.25 -0.83437,1.6e-4 -1.8753,0.41719 -3.125,1.25 9.1662,-1.25 16.458,-1.8748 21.875,-1.875 3.333,1.6e-4 6.8747,0.41719 10.625,1.25 4.1662,0.41719 8.958,1.0422 14.375,1.875 v 1.875 c -5.8338,-0.83281 -11.042,-1.4578 -15.625,-1.875 -4.5838,-0.83281 -8.542,-1.25 -11.875,-1.25 -15.834,1.6e-4 -29.167,3.5419 -40,10.625 2.4997,-0.83281 4.7912,-1.4578 6.875,-1.875 2.083,-0.41719 4.1662,-0.83281 6.25,-1.25 l 10.625,-1.875 0.625,0.625 1.25,1.25 -10,0.625 c -12.917,0.83281 -22.292,5.6252 -28.125,14.375 15.416,-5.8331 28.541,-8.7498 39.375,-8.75 19.166,1.6e-4 37.916,7.5002 56.25,22.5 3.7495,3.3334 6.0412,6.0419 6.875,8.125 l 3.125,5.625 c 2.083,3.3334 3.1245,5.4169 3.125,6.25 -4.7e-4,0.83281 -0.625,1.25 -1.875,1.25 -1.25,1.6e-4 -2.5005,-2.4998 -3.75,-7.5 -0.83437,-1.6666 -3.3338,-4.7916 -7.5,-9.375 -5.417,-5.4166 -10,-9.3748 -13.75,-11.875 -12.084,-8.7498 -26.459,-13.125 -43.125,-13.125 -27.084,1.6e-4 -44.792,9.1669 -53.125,27.5 11.666,-11.25 24.166,-16.875 37.5,-16.875 10.833,1.6e-4 20.416,4.3752 28.75,13.125 1.6662,2.5002 2.9162,4.3752 3.75,5.625 l 2.5,6.875 h -2.5 c -0.41719,-0.83281 -1.0422,-1.8748 -1.875,-3.125 -0.83437,-1.6666 -1.667,-3.7498 -2.5,-6.25 -1.25,-3.7498 -5.2088,-6.8748 -11.875,-9.375 -6.2503,-2.9166 -11.875,-4.3748 -16.875,-4.375 -9.167,1.6e-4 -17.917,2.5002 -26.25,7.5 -7.917,5.0002 -12.5,10.625 -13.75,16.875 4.583,-4.5831 9.9997,-7.9166 16.25,-10 -2.5003,2.0834 -4.3753,3.3334 -5.625,3.75 -6.2503,4.5834 -10.417,8.3334 -12.5,11.25 -1.667,2.5002 -2.5003,8.1252 -2.5,16.875 6.2497,-14.167 13.541,-22.292 21.875,-24.375 l 6.25,-1.25 3.125,-0.625 5,1.875 c -0.41719,1.6e-4 1.0406,-0.41719 4.375,-1.25 l 1.25,-0.625 c 2.4997,1.6e-4 5.6247,2.2919 9.375,6.875 3.7497,4.1669 5.4162,8.5419 5,13.125 v 4.375 c 0.83281,1.6e-4 2.4997,-0.20781 5,-0.625 2.4997,-0.83281 4.3747,-1.25 5.625,-1.25 0.83281,1.6e-4 1.25,1.25 1.25,3.75 v 1.875 c -2.917,2.9167 -4.3753,6.2502 -4.375,10 -3.1e-4,7.5002 2.9162,13.125 8.75,16.875 2.9162,-4.1666 6.8747,-7.2916 11.875,-9.375 3.7495,-1.6666 6.0412,-4.7916 6.875,-9.375 h 2.5 c 0.83281,2.5002 1.6662,4.1667 2.5,5 3.7495,1.6e-4 5.6245,-4.3748 5.625,-13.125 -4.7e-4,-4.1666 -0.83437,-8.5416 -2.5,-13.125 0.41563,-1.6666 1.25,-2.4998 2.5,-2.5 2.9162,1.6e-4 4.3745,3.5419 4.375,10.625 -4.7e-4,3.3334 -0.20937,5.4167 -0.625,6.25 l -5,17.5 -0.625,1.875 c -4.7e-4,0.41719 0.41563,2.7084 1.25,6.875 l 1.875,8.125 1.875,3.125 13.125,14.375 3.75,4.375 h 0.625 c 1.6662,0 2.9162,-1.6666 3.75,-5 l 1.875,-9.375 1.25,-1.25 c 0.83281,1.6e-4 1.8745,1.8752 3.125,5.625 -4.7e-4,1.6667 1.4578,3.9584 4.375,6.875 l 4.375,5.625 5,4.375 c 4.9995,3.75 9.3745,5.8334 13.125,6.25 -0.41719,-1.25 -0.625,-3.125 -0.625,-5.625 v -5 c -4.7e-4,-2.9166 2.2912,-10.625 6.875,-23.125 2.9162,-7.9166 4.7912,-16.458 5.625,-25.625 l -2.5,-8.125 1.875,-0.625 c 3.3328,3.3334 7.2912,5.2084 11.875,5.625 -0.41719,-1.25 -0.625,-3.5416 -0.625,-6.875 -4.5838,-34.167 -14.375,-52.708 -29.375,-55.625 l -15.625,-3.125 c -5.8338,-0.83281 -8.7505,-2.9164 -8.75,-6.25 -4.7e-4,-1.25 0.625,-1.8748 1.875,-1.875 0.83281,1.6e-4 3.1245,1.0422 6.875,3.125 3.7495,1.6669 6.2495,2.5002 7.5,2.5 6.6662,1.6e-4 11.25,-7.2914 13.75,-21.875 h -2.5 c -2.5005,2.9169 -4.5838,4.3752 -6.25,4.375 -4.7e-4,1.6e-4 -1.25,-0.41719 -3.75,-1.25 2.0828,-2.0831 3.7495,-3.3331 5,-3.75 7.0828,-4.5831 10.625,-10.625 10.625,-18.125 -4.7e-4,-1.25 -1.0422,-5.4164 -3.125,-12.5 m -247.5,27.5 1.25,-0.625 -0.625,-0.625 c -1.25,0.41719 -2.2919,0.83438 -3.125,1.25 -0.41719,1.6e-4 -0.625,1.6e-4 -0.625,0 -3.7502,1.6e-4 -5.6252,-2.7081 -5.625,-8.125 -1.6e-4,-6.6664 3.3331,-9.9998 10,-10 8.3331,1.6e-4 12.5,5.2086 12.5,15.625 -1.6e-4,0.83438 -0.41719,3.3336 -1.25,7.5 l -6.25,24.375 0.625,6.875 c 0.41719,-2.0831 1.0422,-4.3748 1.875,-6.875 0.83281,-2.9164 1.8748,-6.2498 3.125,-10 4.5831,-13.75 6.8748,-20.625 6.875,-20.625 -1.6e-4,-14.583 -5.8336,-21.875 -17.5,-21.875 -10,3.1e-4 -15,4.3752 -15,13.125 -1.6e-4,9.1669 3.7498,13.75 11.25,13.75 2.4998,1.6e-4 3.3331,-1.0406 2.5,-3.125 v -0.625 m 87.5,-21.875 c -7.917,4.1669 -11.875,10.417 -11.875,18.75 0.41719,0.41719 0.625,0.83438 0.625,1.25 l 0.625,0.625 3.125,1.25 2.5,1.875 c 2.9164,1.6e-4 4.583,-4.5831 5,-13.75 0.41719,-1.6664 1.0406,-4.5831 1.875,-8.75 l -1.875,-1.25 m -33.75,9.375 c 4.1664,-0.83281 6.2497,-1.25 6.25,-1.25 1.6664,1.6e-4 2.4997,2.0836 2.5,6.25 l -0.625,2.5 c 4.5831,-0.83281 6.8747,-2.4998 6.875,-5 -3.1e-4,-4.9998 -2.2919,-7.4998 -6.875,-7.5 -2.0836,1.6e-4 -4.7919,1.6669 -8.125,5 m 254.38,39.375 -0.625,-6.875 -2.5,-8.125 c -0.41719,-0.41719 -0.625,-1.6664 -0.625,-3.75 -4.7e-4,-2.4998 1.0406,-6.4581 3.125,-11.875 2.0828,-5.8331 3.1245,-9.9998 3.125,-12.5 -4.7e-4,-2.0831 -1.0422,-3.1248 -3.125,-3.125 -2.0839,1.6e-4 -3.5422,4.7919 -4.375,14.375 l -1.25,23.75 c -0.83437,3.3336 1.25,6.0419 6.25,8.125 m -213.75,-41.25 c -2.0836,1.25 -3.3336,3.1252 -3.75,5.625 h 0.625 l -0.625,3.75 c 3.333,2.0836 5.833,3.1252 7.5,3.125 2.4997,1.6e-4 3.7497,-1.8748 3.75,-5.625 -3.1e-4,-3.7498 -2.5003,-6.0414 -7.5,-6.875 m 10.625,8.75 11.875,3.125 c 1.6664,-1.25 2.4997,-2.2914 2.5,-3.125 -3.1e-4,-4.5831 -3.1253,-6.8748 -9.375,-6.875 -3.7503,1.6e-4 -5.6253,0.83281 -5.625,2.5 l 0.625,4.375 m 23.75,-1.875 c -2.0838,-1.25 -3.3338,-1.8748 -3.75,-1.875 -2.0836,1.6e-4 -3.1253,1.25 -3.125,3.75 -3.1e-4,1.6e-4 0.20781,0.41719 0.625,1.25 0.41719,0.41719 1.0406,1.25 1.875,2.5 1.25,0.83281 1.8747,1.4578 1.875,1.875 h 0.625 0.625 c 0.41563,-0.41719 0.83281,-0.625 1.25,-0.625 l 0.625,-2.5 1.25,-1.875 -1.875,-2.5 m -23.125,4.375 h -0.625 c -2.917,1.6e-4 -4.3753,1.8752 -4.375,5.625 -3.1e-4,3.3336 1.6664,5.0002 5,5 3.7497,1.6e-4 5.6247,-2.0831 5.625,-6.25 -3.1e-4,-2.9164 -1.8753,-4.3748 -5.625,-4.375 m -15,21.875 c 5.833,-2.0831 8.7497,-5.4164 8.75,-10 -3.1e-4,-6.6664 -2.7086,-9.9998 -8.125,-10 -3.3336,1.6e-4 -5.0003,1.4594 -5,4.375 -3.1e-4,1.6e-4 0.20781,1.25 0.625,3.75 0.83281,2.5002 2.083,6.4586 3.75,11.875 m 220.62,-21.25 -1.875,16.875 6.875,26.25 c 0.41563,2.0834 0.625,4.1669 0.625,6.25 0.41563,2.0834 0.625,4.1669 0.625,6.25 -4.7e-4,19.583 -4.3755,37.083 -13.125,52.5 -7.9172,15.417 -17.292,23.125 -28.125,23.125 -5.0005,1.6e-4 -8.3338,-2.0833 -10,-6.25 -0.83437,4.1667 -1.25,6.2502 -1.25,6.25 -4.7e-4,7.0834 4.5828,10.417 13.75,10 l 5.625,-0.625 -4.375,9.375 c 8.7495,0 16.041,-2.0833 21.875,-6.25 6.2495,-4.5833 9.3745,-9.7916 9.375,-15.625 v -1.25 -4.375 c 0.41563,-0.41719 0.625,-0.83281 0.625,-1.25 0.41563,-0.41719 1.0406,-0.83281 1.875,-1.25 1.6661,2.9167 2.4995,5.0002 2.5,6.25 -4.7e-4,1.6e-4 -0.20937,0.41719 -0.625,1.25 -4.7e-4,0.41719 -0.20937,1.25 -0.625,2.5 l -5.625,10 -10,10 c -2.9172,2.9167 -4.3755,8.9584 -4.375,18.125 -4.7e-4,6.6667 1.6661,13.958 5,21.875 3.7495,-2.9166 5.8328,-5.625 6.25,-8.125 l 1.875,0.625 c 0.83281,9.5833 4.5828,14.375 11.25,14.375 7.4995,0 11.25,-3.9583 11.25,-11.875 -0.41719,-0.41719 -0.83437,-0.83281 -1.25,-1.25 -4.7e-4,-0.41719 -0.41719,-0.83281 -1.25,-1.25 -0.83437,3.75 -2.2922,5.625 -4.375,5.625 -6.2505,0 -8.9589,-5.4166 -8.125,-16.25 v -2.5 c 0.41563,-1.25 0.625,-3.125 0.625,-5.625 1.25,-6.6666 1.8745,-10.625 1.875,-11.875 1.25,-4.1666 2.7078,-9.375 4.375,-15.625 1.6661,-6.6666 3.5411,-14.167 5.625,-22.5 1.6661,-8.3333 2.7078,-15.625 3.125,-21.875 0.83281,-6.6666 1.25,-12.083 1.25,-16.25 -6.2e-4,-31.25 -7.0839,-56.458 -21.25,-75.625 m -384.38,3.125 c -2.0834,2.9169 -4.5834,6.0419 -7.5,9.375 -2.9169,2.9169 -6.4584,6.2502 -10.625,10 l -13.75,6.25 c -14.583,7.0834 -21.875,16.875 -21.875,29.375 -1.6e-4,7.5002 2.7083,14.167 8.125,20 5.4166,5.4169 11.875,8.1252 19.375,8.125 7.0833,1.6e-4 14.792,-6.2498 23.125,-18.75 l -1.25,0.625 -0.625,-6.25 c -1.6e-4,-2.9166 -0.41719,-4.7916 -1.25,-5.625 l -12.5,-9.375 c -1.6667,-1.6666 -2.5002,-3.7498 -2.5,-6.25 -1.6e-4,-5.4166 2.2916,-8.1248 6.875,-8.125 1.25,1.6e-4 3.1248,0.625 5.625,1.875 -1.6669,-2.9164 -3.9584,-4.3748 -6.875,-4.375 -6.6667,1.6e-4 -10,3.3334 -10,10 -1.6e-4,3.3334 2.0833,6.4584 6.25,9.375 l 2.5,1.25 5,5 c 3.3331,2.0834 5.2081,5.0002 5.625,8.75 l -0.625,5 c -7.9167,7.9169 -14.792,11.875 -20.625,11.875 -6.2502,1.6e-4 -11.667,-2.0831 -16.25,-6.25 -4.1667,-4.1666 -6.2502,-9.3748 -6.25,-15.625 -1.6e-4,-6.2498 2.4998,-12.5 7.5,-18.75 0.83281,-0.83281 1.4578,-1.25 1.875,-1.25 l 1.25,-1.25 14.375,-7.5 c 16.25,-9.1664 24.583,-18.333 25,-27.5 m 191.88,10 c 3.7497,0.83438 5.6247,-1.25 5.625,-6.25 -3.1e-4,-2.9164 -1.667,-4.3748 -5,-4.375 -3.7503,1.6e-4 -5.6253,1.6669 -5.625,5 -3.1e-4,3.7502 1.6664,5.6252 5,5.625 m -99.375,52.5 c 2.9164,-0.41719 4.7914,-2.7081 5.625,-6.875 0.83281,-4.1666 1.4578,-7.2916 1.875,-9.375 0.83281,-2.0831 1.25,-3.1248 1.25,-3.125 2.0831,-5.4166 3.9581,-8.9581 5.625,-10.625 6.6664,-9.9998 15,-17.708 25,-23.125 2.4997,-0.83281 3.5414,-1.25 3.125,-1.25 l 13.125,-0.625 c 2.083,1.6e-4 3.1247,-1.0406 3.125,-3.125 -3.1e-4,-2.4998 -2.0836,-3.7498 -6.25,-3.75 -17.917,1.6e-4 -33.125,11.875 -45.625,35.625 -4.5836,10 -6.8752,17.083 -6.875,21.25 v 5 m 58.75,-38.125 3.125,3.75 c 2.083,2.0834 3.333,3.1252 3.75,3.125 1.25,1.6e-4 1.8747,-2.7081 1.875,-8.125 -3.1e-4,-11.25 -2.0836,-16.875 -6.25,-16.875 -3.3336,1.6e-4 -5.0003,3.1252 -5,9.375 -3.1e-4,4.1669 0.83281,7.0836 2.5,8.75 m 35.625,-12.5 -3.125,-3.75 c -0.41719,-0.41719 -0.83437,-0.625 -1.25,-0.625 -5.8336,1.6e-4 -8.7503,2.2919 -8.75,6.875 -3.1e-4,2.9169 1.8747,4.3752 5.625,4.375 5.4164,1.6e-4 8.1247,-1.8748 8.125,-5.625 -3.1e-4,-0.41719 -0.20937,-0.83281 -0.625,-1.25 m -129.38,3.125 c 4.5831,5.8336 6.8748,11.459 6.875,16.875 -1.6e-4,8.7502 -1.4578,18.333 -4.375,28.75 -1.6e-4,5.8334 -0.20937,9.3752 -0.625,10.625 -0.41719,4.5834 -0.83281,8.5419 -1.25,11.875 -1.6e-4,2.9167 -1.6e-4,5.0002 0,6.25 -1.6e-4,20.833 2.2914,31.875 6.875,33.125 l 7.5,2.5 2.5,12.5 h 8.75 l -2.5,-9.375 8.125,-3.125 c 0.41719,-2.0833 0.625,-4.1666 0.625,-6.25 0.41563,-2.4998 1.0406,-5.4166 1.875,-8.75 0.41563,-17.5 6.0414,-26.25 16.875,-26.25 6.6664,1.6e-4 9.9997,3.5417 10,10.625 v 1.875 c -0.83281,2.0834 -4.3753,5.0002 -10.625,8.75 -4.5836,3.7502 -6.8753,8.9584 -6.875,15.625 -3.1e-4,11.25 5.2081,16.875 15.625,16.875 8.7497,0 14.166,-4.7916 16.25,-14.375 -0.41719,-1.25 -0.625,-3.5416 -0.625,-6.875 -3.1e-4,-6.2498 1.6664,-9.3748 5,-9.375 l 5.625,1.25 -2.5,-5 c -0.83437,-0.83281 -2.0836,-1.25 -3.75,-1.25 -6.6669,1.6e-4 -10,3.7502 -10,11.25 v 1.875 c 1.25,7.5002 1.8747,11.042 1.875,10.625 -3.1e-4,4.5834 -4.1669,6.8752 -12.5,6.875 -3.3336,1.6e-4 -6.8753,-2.0833 -10.625,-6.25 l -0.625,-10.625 3.125,-3.75 c 0.83281,-1.6666 1.6664,-2.9166 2.5,-3.75 l 1.875,-0.625 h 1.25 c 0.41719,1.6667 1.25,2.5002 2.5,2.5 h 1.875 c 7.0831,-5.8333 10.625,-11.667 10.625,-17.5 -3.1e-4,-12.5 -6.0419,-18.75 -18.125,-18.75 -0.83437,1.6e-4 -2.2919,0.20781 -4.375,0.625 -1.6669,1.6e-4 -3.7503,0.20781 -6.25,0.625 l 3.125,-10.625 c -14.167,1.6669 -21.667,7.5002 -22.5,17.5 -0.41719,11.667 -1.25,17.5 -2.5,17.5 -2.5002,1.6e-4 -3.5419,-1.4578 -3.125,-4.375 v -1.25 c 0.83281,-2.0833 1.6664,-4.3748 2.5,-6.875 0.83281,-2.4998 1.6664,-5.2083 2.5,-8.125 2.9164,-7.4998 4.3748,-14.583 4.375,-21.25 -1.6e-4,-1.25 -1.0422,-4.9998 -3.125,-11.25 -0.41719,0.41719 -1.8752,2.0834 -4.375,5 -2.0836,2.9169 -3.5419,4.3752 -4.375,4.375 -1.25,1.6e-4 -1.8752,-0.83281 -1.875,-2.5 -1.6e-4,-0.41719 0.83281,-2.7081 2.5,-6.875 1.6664,-4.1666 2.4998,-8.1248 2.5,-11.875 -1.6e-4,-5.4164 -1.6669,-10.208 -5,-14.375 -2.9169,-4.1664 -6.2502,-6.2498 -10,-6.25 -0.83437,1.6e-4 -1.4594,0.20938 -1.875,0.625 l -1.25,0.625 m 113.75,3.75 c -5.8336,1.25 -8.7503,3.3336 -8.75,6.25 -3.1e-4,1.25 1.0406,1.8752 3.125,1.875 5.4164,1.6e-4 8.1247,-1.4578 8.125,-4.375 v -0.625 l -2.5,-3.125 m -71.25,41.875 c 2.0831,-0.41719 3.1247,-2.4998 3.125,-6.25 0.41719,-4.1666 3.3331,-9.7916 8.75,-16.875 5.4164,-7.4998 10.208,-11.25 14.375,-11.25 5.4164,1.6e-4 8.1247,1.8752 8.125,5.625 -3.1e-4,1.6e-4 -0.41719,1.6669 -1.25,5 6.2497,-1.6666 9.3747,-4.3748 9.375,-8.125 -3.1e-4,-5.8331 -3.5419,-8.7498 -10.625,-8.75 -7.5003,1.6e-4 -14.584,4.1669 -21.25,12.5 -6.2503,7.9169 -9.7919,17.292 -10.625,28.125 m 280.62,-31.25 c 1.25,8.3334 1.8745,15.625 1.875,21.875 -4.7e-4,15 -5.0005,22.5 -15,22.5 -6.2505,1.6e-4 -9.3755,-3.3331 -9.375,-10 -4.7e-4,-6.6666 2.4995,-9.9998 7.5,-10 1.6661,1.6e-4 4.1661,0.625 7.5,1.875 l 0.625,-1.25 -3.125,-3.125 c -4.1672,-0.83281 -6.4589,-1.25 -6.875,-1.25 -5.8339,1.6e-4 -9.7922,5.4169 -11.875,16.25 0.41563,10.417 5.6245,15.625 15.625,15.625 13.75,1.6e-4 20.208,-9.1666 19.375,-27.5 v -4.375 l -1.875,-16.25 c -0.41719,-2.9166 -1.8755,-4.3748 -4.375,-4.375 m -246.88,37.5 0.625,-5 c -2.0836,3.7502 -3.9586,5.6252 -5.625,5.625 l -3.75,-0.625 c -2.9169,-1.6666 -4.3753,-3.9581 -4.375,-6.875 -3.1e-4,-2.0831 1.25,-4.3748 3.75,-6.875 2.9164,-2.4998 4.7914,-3.7498 5.625,-3.75 l 6.25,0.625 c 1.25,0.41719 2.0831,0.83281 2.5,1.25 0.83281,1.6e-4 1.25,1.6e-4 1.25,0 l 3.75,3.75 3.75,3.75 c 0.41563,0.41719 0.625,0.83281 0.625,1.25 l 0.625,0.625 0.625,5.625 0.625,26.875 c 0.83281,19.167 6.2497,33.333 16.25,42.5 -0.41719,-1.25 -0.83437,-2.2916 -1.25,-3.125 -0.41719,-1.25 -0.83281,-2.2916 -1.25,-3.125 -4.5836,-10.833 -6.4586,-22.917 -5.625,-36.25 v -2.5 l 3.75,-36.875 c 0.41719,-1.25 -1.667,-5.4166 -6.25,-12.5 l -4.375,5.625 c -4.167,-4.1666 -9.1669,-6.2498 -15,-6.25 -13.75,1.6e-4 -20.625,5.8334 -20.625,17.5 -3.1e-4,9.1669 3.7497,13.75 11.25,13.75 2.4997,1.6e-4 4.7914,-1.6666 6.875,-5 m -173.12,-25 c -2.9167,2.9169 -4.3752,6.0419 -4.375,9.375 -1.6e-4,7.9169 3.5416,11.875 10.625,11.875 -5.4167,-4.1666 -8.1252,-8.1248 -8.125,-11.875 -1.6e-4,-2.4998 0.625,-5.6248 1.875,-9.375 m 416.88,41.875 -10.625,7.5 c -1.25,0.83281 -1.8755,1.6667 -1.875,2.5 -4.7e-4,1.6667 1.0406,2.5002 3.125,2.5 2.4995,1.6e-4 5.2078,-1.4578 8.125,-4.375 2.9161,-2.9166 4.5828,-5.6248 5,-8.125 l 1.25,-5 -5,5 m -414.38,0 3.75,3.75 13.125,3.75 c 4.5833,1.25 6.8748,3.9584 6.875,8.125 l -0.625,1.875 -0.625,0.625 -5,5 c -0.41719,0.41719 -0.625,0.83281 -0.625,1.25 -1.6e-4,2.0834 1.25,3.1252 3.75,3.125 3.3333,1.6e-4 5.6248,-3.3333 6.875,-10 l 0.625,-3.125 c -1.6e-4,-5.4166 -6.0417,-9.1666 -18.125,-11.25 -1.25,-0.41719 -2.7084,-0.83281 -4.375,-1.25 -1.6667,-0.41719 -3.5417,-1.0422 -5.625,-1.875 m 396.25,0 c -1.6672,0.41719 -2.5005,1.4578 -2.5,3.125 -4.7e-4,2.0834 1.6661,3.1252 5,3.125 l 3.125,-0.625 c 0.83281,-0.83281 1.25,-1.4578 1.25,-1.875 -4.7e-4,-1.6666 -2.2922,-2.9166 -6.875,-3.75 m -176.25,51.25 c 3.333,-0.83281 4.9997,-1.4578 5,-1.875 -3.1e-4,-0.83281 -0.625,-2.4998 -1.875,-5 -0.83281,-2.4998 -1.25,-4.3748 -1.25,-5.625 -3.1e-4,-13.75 6.458,-20.625 19.375,-20.625 9.583,1.6e-4 14.375,3.9584 14.375,11.875 -3.1e-4,4.1667 -3.3338,7.7084 -10,10.625 1.25,0.41719 3.5412,0.625 6.875,0.625 7.4997,1.6e-4 11.25,-3.9583 11.25,-11.875 -3.1e-4,-10.417 -6.8753,-16.25 -20.625,-17.5 l 1.25,-4.375 h -1.25 -1.25 l -7.5,1.25 c -11.667,1.6667 -17.5,11.042 -17.5,28.125 -3.1e-4,3.3334 1.0406,8.1252 3.125,14.375 m 173.75,-40.625 c -1.6672,0.41719 -2.5005,1.6667 -2.5,3.75 -4.7e-4,2.5002 1.4578,3.7502 4.375,3.75 3.3328,1.6e-4 4.9995,-1.4578 5,-4.375 -4.7e-4,-2.0833 -1.6672,-3.1248 -5,-3.125 h -1.875 m -378.75,6.25 c -0.41719,-1.6666 -1.4578,-2.4998 -3.125,-2.5 -3.3334,1.6e-4 -5.0002,1.4578 -5,4.375 -1.6e-4,2.9167 1.6666,4.3752 5,4.375 2.4998,1.6e-4 3.5416,-1.8748 3.125,-5.625 v -0.625 m 389.38,-1.25 c -0.83437,0.83281 -1.25,2.0834 -1.25,3.75 -4.7e-4,3.3334 1.25,5.0002 3.75,5 3.3328,1.6e-4 4.9995,-1.4578 5,-4.375 -4.7e-4,-2.9166 -1.8755,-4.3748 -5.625,-4.375 h -1.875 m -413.12,14.375 v -1.875 l 1.25,-6.25 h -2.5 -0.625 l -3.75,3.125 c -0.41719,0.41719 -0.625,0.83281 -0.625,1.25 -1.6e-4,0.83281 -0.20781,1.4578 -0.625,1.875 l -0.625,1.875 v 0.625 c -1.6e-4,1.25 0.625,1.8752 1.875,1.875 2.0833,1.6e-4 3.9583,-0.83281 5.625,-2.5 m 7.5,3.75 c 3.7498,-1.6666 6.4583,-4.5833 8.125,-8.75 -2.9167,-1.6666 -5.0002,-2.4998 -6.25,-2.5 -4.1667,1.6e-4 -6.2502,1.8752 -6.25,5.625 -1.6e-4,2.0834 1.4578,3.9584 4.375,5.625 m 14.375,-7.5 c -3.3334,2.0834 -5.0002,4.1667 -5,6.25 -1.6e-4,3.3334 1.6666,5.0002 5,5 3.3333,1.6e-4 4.9998,-1.6666 5,-5 -1.6e-4,-2.0833 -1.6667,-4.1666 -5,-6.25 m 8.75,11.25 h 1.25 c 1.6666,0.83281 2.7081,0.41719 3.125,-1.25 l 2.5,-3.125 0.625,-1.25 v -0.625 l -0.625,-1.875 h -0.625 l -0.625,-0.625 -0.625,-0.625 h -0.625 c -2.5002,1.6e-4 -3.9584,3.1252 -4.375,9.375 m -31.25,-2.5 c -2.9167,1.6e-4 -4.3752,1.6667 -4.375,5 -1.6e-4,2.9167 1.25,4.3752 3.75,4.375 3.3333,1.6e-4 4.9998,-1.25 5,-3.75 -1.6e-4,-3.7498 -1.4578,-5.6248 -4.375,-5.625 m 15.625,4.375 -3.125,-3.75 h -0.625 c -3.3334,1.6e-4 -5.0002,2.0834 -5,6.25 -1.6e-4,2.9167 1.4578,4.3752 4.375,4.375 3.3333,1.6e-4 5.6248,-1.25 6.875,-3.75 v -0.625 c -1.6e-4,-0.41719 -0.83281,-1.25 -2.5,-2.5 m 16.875,2.5 c -3.3334,-0.83281 -5.0002,-1.25 -5,-1.25 -4.1667,1.6e-4 -6.2502,1.4578 -6.25,4.375 -1.6e-4,2.5002 1.6666,3.7502 5,3.75 2.0833,1.6e-4 4.1666,-2.2916 6.25,-6.875 m -31.25,5.625 3.125,1.875 -1.25,1.875 c 0.41719,0.41719 1.4578,0.625 3.125,0.625 0.83281,0 1.25,-0.20781 1.25,-0.625 v -2.5 l -1.875,-1.25 -1.875,-0.625 -2.5,0.625 m 16.25,0.625 -5.625,1.875 v 1.875 c -1.6e-4,0.83281 0.625,1.25 1.875,1.25 1.6666,0 3.7498,-1.4578 6.25,-4.375 l -2.5,-0.625 m 193.12,33.125 -3.75,0.625 -158.12,-4.375 -30.625,1.25 c -2.5002,0 -6.4584,-0.625 -11.875,-1.875 2.0833,3.75 3.7498,5.8334 5,6.25 h 13.75 l 64.375,0.625 100,3.75 c 47.5,0.41719 84.583,-7.0833 111.25,-22.5 4.1662,-2.0833 7.2912,-3.75 9.375,-5 2.083,-1.25 3.5412,-2.0833 4.375,-2.5 3.7495,-1.25 5.6245,-2.7083 5.625,-4.375 -4.7e-4,-0.83281 -0.41719,-1.6666 -1.25,-2.5 l -1.25,-0.625 -6.25,3.75 -19.375,9.375 -6.875,3.75 -8.125,2.5 -14.375,4.375 c -14.167,4.1667 -31.459,6.6667 -51.875,7.5 m -198.75,23.125 -2.5,1.875 c 3.7498,2.5 6.6666,3.75 8.75,3.75 4.9998,0 7.4998,-2.0833 7.5,-6.25 -1.6e-4,-3.3333 -1.6667,-6.0416 -5,-8.125 l -18.125,-7.5 -6.875,-5.625 c -0.41719,-1.25 -0.625,-3.3333 -0.625,-6.25 v -5.625 c -1.6e-4,-5.4166 2.9166,-10.417 8.75,-15 h -2.5 c -2.9167,0 -5.6252,2.2917 -8.125,6.875 -2.0834,4.5834 -3.1252,8.3334 -3.125,11.25 -1.6e-4,8.3334 3.9583,14.375 11.875,18.125 l 18.75,8.125 c 0.83281,0.83281 1.25,1.875 1.25,3.125 -1.6e-4,2.0833 -1.25,3.125 -3.75,3.125 -1.6667,0 -3.7502,-0.625 -6.25,-1.875 m 371.25,-46.875 c -0.41719,-0.41719 -1.25,-0.625 -2.5,-0.625 -6.6672,0 -10,2.9167 -10,8.75 -4.7e-4,8.75 4.1662,12.708 12.5,11.875 h 0.625 c 7.4995,-0.41719 12.291,-1.6666 14.375,-3.75 l 8.125,-7.5 -6.25,0.625 -9.375,5 h -3.125 c -5.8338,0 -8.7505,-2.5 -8.75,-7.5 -4.7e-4,-2.0833 1.4578,-4.375 4.375,-6.875 m -15.625,36.875 -7.5,0.625 -16.875,3.75 c -2.0838,0.41719 -3.9588,0.83281 -5.625,1.25 h -5.625 c -20,0 -30,-5.625 -30,-16.875 -4.7e-4,-10.833 5.4162,-16.25 16.25,-16.25 4.583,0 7.4995,2.9167 8.75,8.75 l 1.875,-1.875 v 1.875 -1.25 c 0.41563,-7.5 -3.542,-11.25 -11.875,-11.25 -5.417,0 -10.417,2.0834 -15,6.25 -4.167,3.75 -6.2505,8.125 -6.25,13.125 -4.7e-4,13.75 10.833,20.625 32.5,20.625 10.833,0 23.958,-2.9166 39.375,-8.75 m 43.75,-27.5 c -10,11.25 -23.125,20.625 -39.375,28.125 -15.834,7.0833 -31.459,10.625 -46.875,10.625 -15,0 -26.459,-1.875 -34.375,-5.625 -2.917,2.9167 -4.3753,5.2083 -4.375,6.875 -3.1e-4,0.83281 3.958,1.875 11.875,3.125 l 17.5,1.875 c 1.25,0.41719 4.1662,0.625 8.75,0.625 11.666,0 20.625,-1.25 26.875,-3.75 l 26.25,-9.375 15.625,-8.75 16.875,-13.125 0.625,-3.75 0.625,-6.875 m -141.25,13.125 c -4.5838,2.0834 -6.8753,4.5834 -6.875,7.5 -3.1e-4,1.25 0.83281,3.125 2.5,5.625 1.6662,2.0834 2.4997,3.125 2.5,3.125 -3.1e-4,1.25 -0.41719,1.875 -1.25,1.875 h -0.625 l -9.375,-5 c -4.5838,-0.41719 -9.5838,-1.0422 -15,-1.875 l 1.25,3.75 h -6.875 c -6.2503,-0.83281 -8.9586,0.83281 -8.125,5 v 0.625 l -6.875,4.375 1.875,5 3.125,-5 c 2.083,-2.9167 6.8747,-3.9583 14.375,-3.125 2.083,0.41719 4.7912,0.83281 8.125,1.25 3.333,0 7.708,0.41719 13.125,1.25 h 2.5 c 8.7497,0 13.125,-3.9583 13.125,-11.875 -3.1e-4,-1.25 -0.20937,-2.0833 -0.625,-2.5 l -3.125,-5.625 0.625,-3.75 -4.375,-0.625 m -15.625,4.375 -9.375,1.875 17.5,5 -8.125,-6.875 m 148.12,25.625 c -3.3338,-2.5 -5.0005,-4.5833 -5,-6.25 -4.7e-4,-3.3333 3.9578,-8.3333 11.875,-15 l 0.625,-5 h -1.875 l -8.125,6.25 -5.625,5.625 c -2.0838,2.0834 -3.1255,4.375 -3.125,6.875 -4.7e-4,4.5833 3.7495,7.0833 11.25,7.5 m -361.25,-0.625 1.25,-1.875 c -5.4169,-1.6667 -8.1252,-3.9583 -8.125,-6.875 -1.6e-4,-6.6666 3.1248,-10 9.375,-10 5.4166,0 9.9998,1.875 13.75,5.625 l 13.125,11.875 c 2.9166,2.9167 6.8748,4.375 11.875,4.375 10.416,0 15.625,-3.5417 15.625,-10.625 -1.6e-4,-0.41719 -0.20937,-0.83281 -0.625,-1.25 l -3.75,-6.875 6.25,-1.875 h 1.25 c 8.7498,0 13.958,0.83281 15.625,2.5 l 25,15.625 1.25,0.625 1.25,0.625 c 1.25,0 2.7081,-0.83281 4.375,-2.5 l -6.25,-2.5 -21.875,-13.75 c -5.8336,-3.3333 -13.334,-5 -22.5,-5 -8.7502,0 -13.125,2.7084 -13.125,8.125 l 0.625,1.25 3.75,3.125 c 0.41563,0.41719 0.625,1.0422 0.625,1.875 -1.6e-4,4.1667 -3.3334,6.25 -10,6.25 -3.7502,0 -7.0834,-1.4578 -10,-4.375 l -10.625,-12.5 c -2.5002,-2.5 -7.7084,-3.75 -15.625,-3.75 -8.7502,0 -13.125,3.9584 -13.125,11.875 -1.6e-4,5.4167 3.5416,8.75 10.625,10 m 91.25,-20 c 4.1664,9.5834 10.416,14.792 18.75,15.625 l -3.75,-5.625 -3.75,-3.125 -4.375,-6.25 -6.875,-0.625 m 100,1.25 h -8.125 l -6.25,-1.25 h -8.75 c -20,0 -30,5 -30,15 -3.1e-4,2.5 2.2914,5 6.875,7.5 0.41719,0.41719 1.25,0.625 2.5,0.625 h 0.625 l 8.75,-3.125 -6.875,-1.875 c -1.6669,-0.41719 -2.5003,-1.6667 -2.5,-3.75 -3.1e-4,-7.0833 4.7914,-10.625 14.375,-10.625 l 23.125,0.625 6.25,-3.125 m 45.625,10 -3.75,4.375 v 1.25 c -3.1e-4,2.0833 0.83281,3.125 2.5,3.125 6.6662,0 9.9997,-4.375 10,-13.125 -3.1e-4,-2.9166 -1.4594,-4.375 -4.375,-4.375 -1.25,0 -2.0838,0.625 -2.5,1.875 l -1.875,6.875 m -161.88,6.875 c -2.5002,-1.6667 -3.7502,-3.3333 -3.75,-5 -1.6e-4,-2.0833 1.6664,-3.125 5,-3.125 2.9164,0 4.7914,0.20781 5.625,0.625 -2.9169,-2.9166 -6.2502,-4.375 -10,-4.375 -5.0002,0 -7.5002,1.875 -7.5,5.625 -1.6e-4,5 1.6664,7.5 5,7.5 0.41719,0 2.2914,-0.41719 5.625,-1.25 m 299.38,-428.12 c 1.6661,2.5005 3.5411,4.3755 5.625,5.625 6.2495,4.5838 9.3745,8.1255 9.375,10.625 -0.83437,-0.41563 -2.0839,-1.0406 -3.75,-1.875 -1.25,-1.25 -2.9172,-2.708 -5,-4.375 l -3.75,-5 -5.625,-5 0.625,-0.625 2.5,0.625 m 21.875,11.875 2.5,5 -4.375,0.625 v -2.5 l 1.875,-3.125 m -61.875,10 v 3.125 c -1.25,-0.41563 -1.8755,-1.0406 -1.875,-1.875 -4.7e-4,-0.83281 0.20781,-1.25 0.625,-1.25 h 1.25 m 12.5,12.5 -3.125,-0.625 -4.375,-3.75 -0.625,-2.5 8.125,6.875 m -3.125,-0.625 c -4.7e-4,-0.41563 0.41563,-0.625 1.25,-0.625 l -1.25,0.625 m -275.62,5 c 2.4998,0.83437 4.1664,3.542 5,8.125 2.0831,2.0838 4.1664,4.5838 6.25,7.5 2.4998,2.917 5.2081,6.042 8.125,9.375 l -13.75,-8.125 -5.625,-16.875 m 54.375,3.125 c 2.4997,4.167 4.1664,9.167 5,15 0.41719,0.41719 0.625,1.4594 0.625,3.125 -3.1e-4,1.25 0.20781,2.5003 0.625,3.75 l -2.5,1.25 -3.75,-23.125 m 39.375,1.875 2.5,9.375 -2.5,3.75 c -0.41719,-1.25 -0.625,-2.708 -0.625,-4.375 v -4.375 c -3.1e-4,-2.083 0.20781,-3.5412 0.625,-4.375 m -57.5,15 -12.5,-8.75 h 0.625 l 11.875,8.75 m 13.125,-8.75 c 2.0831,0.83438 3.5414,3.1255 4.375,6.875 l 0.625,5.625 -2.5,1.25 -2.5,-13.75 m -15.625,12.5 c -3.1e-4,-0.83281 -1.25,-1.25 -3.75,-1.25 -0.41719,3.1e-4 -1.0422,-0.41562 -1.875,-1.25 -1.6e-4,-1.6662 0.83281,-2.4995 2.5,-2.5 l 3.125,5 m -140,-1.875 c 1.25,0.41719 2.0833,1.25 2.5,2.5 0.41719,1.25 0.41719,1.8753 0,1.875 -1.6e-4,3.1e-4 -0.83281,3.1e-4 -2.5,0 -1.25,-0.41562 -2.0834,-1.25 -2.5,-2.5 l 2.5,-1.875 m 140,3.75 h 0.625 c 1.6664,3.1e-4 2.4997,0.83438 2.5,2.5 0.41719,0.41719 0.41719,0.625 0,0.625 -2.9169,3.1e-4 -4.3753,-0.41562 -4.375,-1.25 l 0.625,-0.625 c -3.1e-4,-0.41562 0.20781,-0.83281 0.625,-1.25 m -137.5,4.375 -1.25,3.125 c -0.41719,-0.41562 -1.0422,-0.83281 -1.875,-1.25 -0.41719,-0.41562 -1.0422,-1.0406 -1.875,-1.875 0.83281,-0.83281 1.4578,-1.25 1.875,-1.25 l 3.125,1.25 m 192.5,2.5 -3.75,-1.875 -0.625,-1.25 4.375,3.125 m -191.88,2.5 -0.625,3.75 -5,-1.25 1.875,-2.5 h 3.75 m 0.625,7.5 c -0.41719,0.41719 -0.83281,0.625 -1.25,0.625 0.41719,1.25 0.41719,1.8753 0,1.875 -1.6e-4,3.1e-4 -0.20781,3.1e-4 -0.625,0 -0.41719,-0.41562 -1.0422,-0.83281 -1.875,-1.25 -0.83281,-0.83281 -1.6667,-0.83281 -2.5,0 l -0.625,-1.25 c 0.41719,-1.6662 2.4998,-2.4997 6.25,-2.5 -1.6e-4,3.1e-4 -1.6e-4,0.20938 0,0.625 -1.6e-4,0.41719 0.20781,1.0422 0.625,1.875 m 143.12,-2.5 h 0.625 c 1.6664,3.1e-4 2.9164,1.0422 3.75,3.125 h -3.75 c -0.83281,3.1e-4 -1.25,-0.20781 -1.25,-0.625 -3.1e-4,-1.25 0.20781,-2.083 0.625,-2.5 m 18.125,16.875 2.5,1.25 c 0.83281,0.41719 1.4578,0.83438 1.875,1.25 0.41563,3.1e-4 0.625,3.1e-4 0.625,0 l -0.625,1.25 c -2.5003,3.1e-4 -3.7503,0.20938 -3.75,0.625 -0.41719,-0.41562 -0.625,-1.25 -0.625,-2.5 v -1.875 m 0.625,11.875 2.5,-0.625 2.5,1.25 1.25,1.25 -1.25,1.25 c -3.1e-4,3.1e-4 -1.6669,-1.0406 -5,-3.125 M 186.8,282.91 c 4.1666,3.3336 6.6666,8.3336 7.5,15 l -0.625,1.875 -6.875,-16.875 m 158.12,1.25 3.125,1.25 0.625,1.875 -3.75,-0.625 c 0.41719,3.1e-4 0.41719,-0.83281 0,-2.5 m -2.5,6.875 4.375,1.25 c -3.1e-4,0.83438 -0.41719,1.25 -1.25,1.25 h -0.625 l -1.25,-0.625 -1.25,-1.875 m -3.125,5.625 2.5,1.875 1.875,1.875 -5.625,-1.25 1.25,-2.5 m -145,26.875 c 0.41719,0.83438 1.0422,1.667 1.875,2.5 0.83281,0.83438 1.6666,2.0836 2.5,3.75 l -1.875,1.875 -2.5,-8.125 m -3.75,1.25 c 1.6666,3.3336 2.9166,5.8336 3.75,7.5 l -0.625,0.625 v 1.25 l -3.125,-4.375 -1.25,-3.75 0.625,-1.25 h 0.625 m 228.12,11.25 8.125,-3.75 -7.5,6.25 -0.625,-2.5 m 13.125,-0.625 c -0.83437,0.83281 -5.417,3.9586 -13.75,9.375 v -1.25 c 1.25,3.1e-4 3.5412,-1.0406 6.875,-3.125 3.7497,-2.4997 5.6247,-4.3747 5.625,-5.625 l 1.25,0.625 m -54.375,28.125 -1.875,1.25 -0.625,-2.5 2.5,1.25 m 48.75,3.125 2.5,1.25 1.25,1.875 -3.125,-1.25 -4.375,-0.625 0.625,-1.25 h 3.125 m 8.75,8.75 3.125,3.125 c -7.917,-3.3331 -13.334,-4.9997 -16.25,-5 l -6.875,0.625 c -2.0836,3.1e-4 -3.1253,-0.625 -3.125,-1.875 -3.1e-4,-1.6664 0.625,-2.2914 1.875,-1.875 h 0.625 l 7.5,0.625 8.125,1.875 5,2.5 m 73.75,27.5 18.75,-5.625 c -0.41719,0.41719 -1.4594,1.25 -3.125,2.5 -1.25,0.83438 -3.3338,2.0836 -6.25,3.75 l -9.375,-0.625 m 4.375,8.75 1.25,1.875 -1.875,-1.875 h 0.625 m -5,10 1.875,0.625 c -1.667,1.6669 -2.5005,3.5419 -2.5,5.625 l 5.625,6.875 -6.25,-3.125 c -0.83437,-1.6664 -1.4594,-2.9164 -1.875,-3.75 -4.7e-4,-0.83281 1.0406,-2.9164 3.125,-6.25 m -8.75,6.875 1.875,-5.625 1.25,0.625 -0.625,7.5 v 0.625 c -0.41719,-0.41719 -0.83437,-0.625 -1.25,-0.625 -0.41719,-0.41562 -0.83437,-0.83281 -1.25,-1.25 v -0.625 -0.625 m -2.5,-4.375 0.625,6.875 -3.125,-1.25 -0.625,-0.625 0.625,-1.875 1.875,-3.125 h 0.625 m 46.875,22.5 c 2.4995,1.6e-4 5.2078,3.3334 8.125,10 0.41563,1.25 0.83281,2.7084 1.25,4.375 0.41563,1.25 0.83281,2.7084 1.25,4.375 -1.25,1.6e-4 -2.5005,-2.4998 -3.75,-7.5 -0.83437,-0.83281 -2.5005,-3.1248 -5,-6.875 -1.6672,-2.4998 -2.2922,-3.9581 -1.875,-4.375 m 3.125,18.75 c -0.41719,-2.0831 -1.6672,-4.3748 -3.75,-6.875 -1.6672,-2.4998 -2.5005,-3.9581 -2.5,-4.375 -4.7e-4,-0.83281 0.20781,-1.25 0.625,-1.25 1.25,1.6e-4 2.2912,1.0422 3.125,3.125 0.83281,1.6669 1.6662,3.3334 2.5,5 -1.25,-1.6666 -2.0838,-2.4998 -2.5,-2.5 -4.7e-4,1.25 0.20781,2.0834 0.625,2.5 1.25,2.0834 1.8745,2.0834 1.875,0 0.41563,2.9169 0.41563,4.3752 0,4.375 m -65,-6.25 -3.75,1.25 -6.25,3.75 4.375,-5 h 5.625 m -70.625,3.75 0.625,1.875 c -4.167,5.4169 -7.7086,10.833 -10.625,16.25 -4.167,8.3334 -6.2503,15.625 -6.25,21.875 v 4.375 9.375 c 0.41719,8.7502 2.2914,16.875 5.625,24.375 -3.3336,1.25 -5.6253,1.875 -6.875,1.875 -3.3336,0 -5.8336,-3.75 -7.5,-11.25 l -1.875,-8.125 c -0.41719,-0.41719 -0.625,-1.4578 -0.625,-3.125 -3.1e-4,-2.0833 -0.20937,-3.7498 -0.625,-5 l -1.25,-16.875 c -3.1e-4,-4.5833 2.083,-10.208 6.25,-16.875 -3.1e-4,3.7502 -0.20937,5.8334 -0.625,6.25 -1.667,6.2502 -2.5003,10.625 -2.5,13.125 -3.1e-4,2.5002 0.20781,4.3752 0.625,5.625 l 2.5,-1.875 -0.625,-6.25 1.25,-8.75 3.75,-13.125 c 0.41563,-1.6666 3.1247,-4.1666 8.125,-7.5 -2.0836,4.5834 -4.167,9.5834 -6.25,15 -1.667,5.4167 -2.917,11.042 -3.75,16.875 h 1.875 c 1.6664,-13.75 5.833,-25.208 12.5,-34.375 l 6.25,-3.75 m 62.5,5.625 c 1.6662,-3.7498 3.7495,-5.6248 6.25,-5.625 l 6.875,1.875 -8.125,1.25 -2.5,3.125 -2.5,-0.625 m -173.75,-3.75 -0.625,7.5 -1.875,8.75 c -0.83281,3.3334 -1.4578,5.0002 -1.875,5 -1.25,1.6e-4 -1.8752,-0.20781 -1.875,-0.625 v -0.625 l 2.5,-5.625 2.5,-14.375 h 1.25 m -8.75,11.25 3.75,-6.25 c -1.6e-4,3.3334 -0.83437,5.8334 -2.5,7.5 l -1.25,-1.25 m 200.62,-5.625 c -7.0838,0.41719 -11.042,2.2919 -11.875,5.625 h -1.875 c -4.7e-4,-4.9998 2.083,-7.4998 6.25,-7.5 3.7495,1.6e-4 6.2495,0.625 7.5,1.875 m -27.5,3.125 c 0.83281,0.83281 1.25,1.6669 1.25,2.5 -3.1e-4,0.41719 -0.20937,0.625 -0.625,0.625 1.6662,1.6e-4 2.4997,-0.41719 2.5,-1.25 l -5,-0.625 1.25,-1.25 h 0.625 m 53.125,5.625 c 1.6662,0.83281 3.1245,1.6669 4.375,2.5 1.25,0.83281 2.7078,1.6669 4.375,2.5 -2.0838,1.6e-4 -3.5422,-0.20781 -4.375,-0.625 -2.0838,-0.41719 -3.7505,-0.625 -5,-0.625 -0.83437,-0.41719 -1.0422,-0.625 -0.625,-0.625 -1.667,1.6e-4 -2.5005,-0.625 -2.5,-1.875 l 1.25,-1.25 h 2.5 m -47.5,4.375 h -3.125 l -1.25,1.875 c -0.83437,1.6e-4 -1.25,-0.41719 -1.25,-1.25 -3.1e-4,-0.83281 0.20781,-1.4578 0.625,-1.875 l 5,1.25 m -150,4.375 -11.875,14.375 c -0.41719,-0.41719 -0.625,-1.25 -0.625,-2.5 -1.6e-4,-0.83281 0.20781,-1.4578 0.625,-1.875 l 2.5,-3.125 4.375,-6.25 5,-0.625 m 201.25,1.875 6.25,3.75 c -3.3338,-0.41719 -6.4588,-1.6666 -9.375,-3.75 -4.7e-4,-0.83281 0.41563,-1.25 1.25,-1.25 l 1.875,1.25 m 1.875,8.125 5.625,3.75 -5,-0.625 c -1.25,1.6e-4 -2.0838,-0.20781 -2.5,-0.625 l 0.625,-2.5 h 1.25 m 85.625,1.875 c 0.83281,-0.83281 1.6661,-1.25 2.5,-1.25 4.9995,1.6e-4 7.4995,0.625 7.5,1.875 -4.7e-4,1.25 -1.6672,1.8752 -5,1.875 -1.6672,1.6e-4 -3.3339,-0.83281 -5,-2.5 m -110.62,26.875 -6.25,-0.625 c -2.5005,1.6e-4 -3.9588,-5.6248 -4.375,-16.875 -0.41719,-1.6666 -0.20937,-3.7498 0.625,-6.25 l 1.875,-2.5 0.625,1.25 -1.25,6.25 -0.625,1.875 c -4.7e-4,1.25 3.1245,6.8752 9.375,16.875 m 111.25,-21.875 4.375,1.25 3.75,2.5 h -5 l -5,-1.875 1.875,-1.875 m -316.25,5.625 v -1.25 h 5.625 c 0.83281,-0.41719 1.4578,-0.625 1.875,-0.625 l 0.625,-0.625 c 0.41719,0.41719 0.625,1.25 0.625,2.5 -1.25,0.41719 -2.2919,0.83281 -3.125,1.25 -0.41719,1.6e-4 -0.625,1.6e-4 -0.625,0 -1.6e-4,1.6e-4 -1.6669,-0.41719 -5,-1.25 m 235,-1.25 -4.375,-0.625 c 1.25,1.6e-4 1.8745,0.625 1.875,1.875 -4.7e-4,1.25 -0.625,1.8752 -1.875,1.875 -0.83437,1.6e-4 -1.25,-0.625 -1.25,-1.875 -4.7e-4,1.25 1.8745,0.83281 5.625,-1.25 m 90,4.375 -5.625,0.625 -6.25,-1.875 v -0.625 h 0.625 v -0.625 h 0.625 l -0.625,-0.625 5,1.25 6.25,1.875 m -313.75,5 -9.375,-1.25 -0.625,-2.5 3.125,0.625 3.75,-1.25 3.125,4.375 m 308.12,2.5 c -2.0839,-2.0833 -5.2089,-3.1248 -9.375,-3.125 1.25,-1.25 2.4995,-1.8748 3.75,-1.875 6.2495,1.6e-4 9.3745,0.83281 9.375,2.5 l -3.75,2.5 m -313.12,-0.625 5,2.5 h -8.125 c -0.83437,1.6e-4 -1.8752,-0.625 -3.125,-1.875 l 6.25,-0.625 m 231.88,-0.625 c -0.83437,-0.41719 -2.0838,0.20781 -3.75,1.875 -4.7e-4,0.83281 -0.41719,1.25 -1.25,1.25 -1.25,1.6e-4 -2.0838,-0.625 -2.5,-1.875 l 7.5,-1.25 m -0.625,10 5.625,3.125 h -7.5 v -3.125 h 1.875 m 56.25,16.25 -0.625,-1.25 6.25,-4.375 7.5,-4.375 -3.125,3.125 c -4.7e-4,0.83281 -3.3339,3.125 -10,6.875 m 8.75,9.375 0.625,4.375 -1.875,9.375 2.5,4.375 -4.375,0.625 v -5 c -4.7e-4,-1.6666 1.0406,-6.25 3.125,-13.75 m 4.375,4.375 1.25,2.5 1.25,5.625 -3.125,1.25 c -1.25,-2.5 -1.8755,-4.1666 -1.875,-5 v -0.625 l 0.625,-2.5 0.625,-0.625 h 0.625 l 0.625,-0.625 m -157.5,21.25 c 2.9162,0.41719 4.3747,1.875 4.375,4.375 l -4.375,-4.375"
       inkscape:connector-curvature="0" />
  </g>
  <metadata
     id="metadata4">
    <rdf:RDF>
      <cc:Work>
        <dc:format>image/svg+xml</dc:format>
        <dc:type
           rdf:resource="http://purl.org/dc/dcmitype/StillImage" />
        <cc:license
           rdf:resource="http://creativecommons.org/publicdomain/zero/1.0/" />
        <dc:publisher>
          <cc:Agent
             rdf:about="http://openclipart.org/">
            <dc:title>Openclipart</dc:title>
          </cc:Agent>
        </dc:publisher>
        <dc:title></dc:title>
      </cc:Work>
      <cc:License
         rdf:about="http://creativecommons.org/publicdomain/zero/1.0/">
        <cc:permits
           rdf:resource="http://creativecommons.org/ns#Reproduction" />
        <cc:permits
           rdf:resource="http://creativecommons.org/ns#Distribution" />
        <cc:permits
           rdf:resource="http://creativecommons.org/ns#DerivativeWorks" />
      </cc:License>
    </rdf:RDF>
  </metadata>
  <text
     xml:space="preserve"
     style="font-style:normal;font-variant:normal;font-weight:500;font-stretch:normal;font-size:323.94641113px;line-height:1.25;font-family:Likhan;-inkscape-font-specification:'Likhan, Medium';font-variant-ligatures:normal;font-variant-caps:normal;font-variant-numeric:normal;font-feature-settings:normal;text-align:start;letter-spacing:0px;word-spacing:0px;writing-mode:lr-tb;text-anchor:start;fill:#ffffff;fill-opacity:1;stroke:none;stroke-width:1.01643324;"
     x="250.88846"
     y="241.29895"
     id="text3716"
     transform="scale(1.0724398,0.93245327)"><tspan
       sodipodi:role="line"
       id="tspan3714"
       x="250.88846"
       y="241.29895"
       style="font-style:normal;font-variant:normal;font-weight:500;font-stretch:normal;font-size:323.94641113px;font-family:Likhan;-inkscape-font-specification:'Likhan, Medium';font-variant-ligatures:normal;font-variant-caps:normal;font-variant-numeric:normal;font-feature-settings:normal;text-align:start;writing-mode:lr-tb;text-anchor:start;fill:#ffffff;fill-opacity:1;stroke-width:1.01643324;">B</tspan></text>
  <text
     xml:space="preserve"
     style="font-style:normal;font-variant:normal;font-weight:500;font-stretch:normal;font-size:323.94641113px;line-height:1.25;font-family:Likhan;-inkscape-font-specification:'Likhan, Medium';font-variant-ligatures:normal;font-variant-caps:normal;font-variant-numeric:normal;font-feature-settings:normal;text-align:start;letter-spacing:0px;word-spacing:0px;writing-mode:lr-tb;text-anchor:start;fill:#ffffff;fill-opacity:1;stroke:none;stroke-width:1.01643324;"
     x="484.00177"
     y="241.29895"
     id="text3716-7"
     transform="scale(1.0724398,0.93245327)"><tspan
       sodipodi:role="line"
       id="tspan3714-0"
       x="484.00177"
       y="241.29895"
       style="font-style:normal;font-variant:normal;font-weight:500;font-stretch:normal;font-size:323.94641113px;font-family:Likhan;-inkscape-font-specification:'Likhan, Medium';font-variant-ligatures:normal;font-variant-caps:normal;font-variant-numeric:normal;font-feature-settings:normal;text-align:start;writing-mode:lr-tb;text-anchor:start;fill:#ffffff;fill-opacity:1;stroke-width:1.01643324;">B</tspan></text>
  <text
     xml:space="preserve"
     style="font-style:normal;font-variant:normal;font-weight:500;font-stretch:normal;font-size:321.36730957px;line-height:1.25;font-family:Likhan;-inkscape-font-specification:'Likhan, Medium';font-variant-ligatures:normal;font-variant-caps:normal;font-variant-numeric:normal;font-feature-settings:normal;text-align:start;letter-spacing:0px;word-spacing:0px;writing-mode:lr-tb;text-anchor:start;fill:#ffffff;fill-opacity:1;stroke:none;stroke-width:1.04718971;"
     x="724.52795"
     y="239.37787"
     id="text3716-8"
     transform="scale(1.0639015,0.93993663)"><tspan
       sodipodi:role="line"
       id="tspan36"
       x="724.52795"
       y="239.37787"
       style="font-style:normal;font-variant:normal;font-weight:500;font-stretch:normal;font-size:321.36730957px;font-family:Likhan;-inkscape-font-specification:'Likhan, Medium';font-variant-ligatures:normal;font-variant-caps:normal;font-variant-numeric:normal;font-feature-settings:normal;text-align:start;writing-mode:lr-tb;text-anchor:start;stroke-width:1.04718971;fill:#ffffff;fill-opacity:1;">E</tspan></text>
</svg>
